<?xml version="1.0" encoding="utf-8" standalone="no"?>
<!DOCTYPE svg PUBLIC "-//W3C//DTD SVG 1.1//EN"
  "http://www.w3.org/Graphics/SVG/1.1/DTD/svg11.dtd">
<!-- Created with matplotlib (https://matplotlib.org/) -->
<svg height="460.990312pt" version="1.1" viewBox="0 0 1204.924219 460.990312" width="1204.924219pt" xmlns="http://www.w3.org/2000/svg" xmlns:xlink="http://www.w3.org/1999/xlink">
 <metadata>
  <rdf:RDF xmlns:cc="http://creativecommons.org/ns#" xmlns:dc="http://purl.org/dc/elements/1.1/" xmlns:rdf="http://www.w3.org/1999/02/22-rdf-syntax-ns#">
   <cc:Work>
    <dc:type rdf:resource="http://purl.org/dc/dcmitype/StillImage"/>
    <dc:date>2022-04-01T13:39:53.593914</dc:date>
    <dc:format>image/svg+xml</dc:format>
    <dc:creator>
     <cc:Agent>
      <dc:title>Matplotlib v3.3.1, https://matplotlib.org/</dc:title>
     </cc:Agent>
    </dc:creator>
   </cc:Work>
  </rdf:RDF>
 </metadata>
 <defs>
  <style type="text/css">*{stroke-linecap:butt;stroke-linejoin:round;}</style>
 </defs>
 <g id="figure_1">
  <g id="patch_1">
   <path d="M 0 460.990312 
L 1204.924219 460.990312 
L 1204.924219 0 
L 0 0 
z
" style="fill:none;"/>
  </g>
  <g id="axes_1">
   <g id="patch_2">
    <path d="M 83.524219 408.916875 
L 976.324219 408.916875 
L 976.324219 28.396875 
L 83.524219 28.396875 
z
" style="fill:#fffafa;"/>
   </g>
   <g id="PathCollection_1">
    <defs>
     <path d="M 0 5.477226 
C 1.452577 5.477226 2.845856 4.900111 3.872983 3.872983 
C 4.900111 2.845856 5.477226 1.452577 5.477226 0 
C 5.477226 -1.452577 4.900111 -2.845856 3.872983 -3.872983 
C 2.845856 -4.900111 1.452577 -5.477226 0 -5.477226 
C -1.452577 -5.477226 -2.845856 -4.900111 -3.872983 -3.872983 
C -4.900111 -2.845856 -5.477226 -1.452577 -5.477226 0 
C -5.477226 1.452577 -4.900111 2.845856 -3.872983 3.872983 
C -2.845856 4.900111 -1.452577 5.477226 0 5.477226 
z
" id="md6de2e076e" style="stroke:#000000;stroke-opacity:0.8;"/>
    </defs>
    <g clip-path="url(#pa27a1d776b)">
     <use style="fill:#332288;fill-opacity:0.8;stroke:#000000;stroke-opacity:0.8;" x="241.96013" xlink:href="#md6de2e076e" y="289.452504"/>
     <use style="fill:#332288;fill-opacity:0.8;stroke:#000000;stroke-opacity:0.8;" x="217.286058" xlink:href="#md6de2e076e" y="225.843837"/>
     <use style="fill:#332288;fill-opacity:0.8;stroke:#000000;stroke-opacity:0.8;" x="206.038455" xlink:href="#md6de2e076e" y="286.441055"/>
    </g>
   </g>
   <g id="PathCollection_2">
    <defs>
     <path d="M -0 5.477226 
L 5.477226 -5.477226 
L -5.477226 -5.477226 
z
" id="me7fbae2e50" style="stroke:#000000;stroke-opacity:0.8;"/>
    </defs>
    <g clip-path="url(#pa27a1d776b)">
     <use style="fill:#117733;fill-opacity:0.8;stroke:#000000;stroke-opacity:0.8;" x="518.416473" xlink:href="#me7fbae2e50" y="336.853974"/>
     <use style="fill:#117733;fill-opacity:0.8;stroke:#000000;stroke-opacity:0.8;" x="495.306289" xlink:href="#me7fbae2e50" y="348.170355"/>
     <use style="fill:#117733;fill-opacity:0.8;stroke:#000000;stroke-opacity:0.8;" x="493.267617" xlink:href="#me7fbae2e50" y="352.72521"/>
     <use style="fill:#117733;fill-opacity:0.8;stroke:#000000;stroke-opacity:0.8;" x="457.830006" xlink:href="#me7fbae2e50" y="331.866023"/>
     <use style="fill:#117733;fill-opacity:0.8;stroke:#000000;stroke-opacity:0.8;" x="383.644564" xlink:href="#me7fbae2e50" y="155.632603"/>
     <use style="fill:#117733;fill-opacity:0.8;stroke:#000000;stroke-opacity:0.8;" x="357.904474" xlink:href="#me7fbae2e50" y="169.432805"/>
     <use style="fill:#117733;fill-opacity:0.8;stroke:#000000;stroke-opacity:0.8;" x="359.710672" xlink:href="#me7fbae2e50" y="177.09644"/>
     <use style="fill:#117733;fill-opacity:0.8;stroke:#000000;stroke-opacity:0.8;" x="719.015023" xlink:href="#me7fbae2e50" y="335.926448"/>
     <use style="fill:#117733;fill-opacity:0.8;stroke:#000000;stroke-opacity:0.8;" x="723.681647" xlink:href="#me7fbae2e50" y="328.864457"/>
     <use style="fill:#117733;fill-opacity:0.8;stroke:#000000;stroke-opacity:0.8;" x="688.2182" xlink:href="#me7fbae2e50" y="341.685966"/>
     <use style="fill:#117733;fill-opacity:0.8;stroke:#000000;stroke-opacity:0.8;" x="516.092922" xlink:href="#me7fbae2e50" y="109.772784"/>
     <use style="fill:#117733;fill-opacity:0.8;stroke:#000000;stroke-opacity:0.8;" x="480.59468" xlink:href="#me7fbae2e50" y="48.138473"/>
     <use style="fill:#117733;fill-opacity:0.8;stroke:#000000;stroke-opacity:0.8;" x="494.32466" xlink:href="#me7fbae2e50" y="86.264428"/>
     <use style="fill:#117733;fill-opacity:0.8;stroke:#000000;stroke-opacity:0.8;" x="417.672234" xlink:href="#me7fbae2e50" y="162.12015"/>
     <use style="fill:#117733;fill-opacity:0.8;stroke:#000000;stroke-opacity:0.8;" x="404.160447" xlink:href="#me7fbae2e50" y="187.495468"/>
     <use style="fill:#117733;fill-opacity:0.8;stroke:#000000;stroke-opacity:0.8;" x="385.699118" xlink:href="#me7fbae2e50" y="211.817881"/>
    </g>
   </g>
   <g id="PathCollection_3">
    <defs>
     <path d="M 0 -5.477226 
L -5.477226 5.477226 
L 5.477226 5.477226 
z
" id="m7103d223b9" style="stroke:#000000;stroke-opacity:0.8;"/>
    </defs>
    <g clip-path="url(#pa27a1d776b)">
     <use style="fill:#44aa99;fill-opacity:0.8;stroke:#000000;stroke-opacity:0.8;" x="429.439934" xlink:href="#m7103d223b9" y="213.280349"/>
     <use style="fill:#44aa99;fill-opacity:0.8;stroke:#000000;stroke-opacity:0.8;" x="429.445065" xlink:href="#m7103d223b9" y="209.236809"/>
     <use style="fill:#44aa99;fill-opacity:0.8;stroke:#000000;stroke-opacity:0.8;" x="423.143314" xlink:href="#m7103d223b9" y="226.613737"/>
     <use style="fill:#44aa99;fill-opacity:0.8;stroke:#000000;stroke-opacity:0.8;" x="523.147533" xlink:href="#m7103d223b9" y="155.548441"/>
     <use style="fill:#44aa99;fill-opacity:0.8;stroke:#000000;stroke-opacity:0.8;" x="542.979707" xlink:href="#m7103d223b9" y="129.903447"/>
     <use style="fill:#44aa99;fill-opacity:0.8;stroke:#000000;stroke-opacity:0.8;" x="521.233194" xlink:href="#m7103d223b9" y="223.532638"/>
     <use style="fill:#44aa99;fill-opacity:0.8;stroke:#000000;stroke-opacity:0.8;" x="491.052765" xlink:href="#m7103d223b9" y="256.887156"/>
     <use style="fill:#44aa99;fill-opacity:0.8;stroke:#000000;stroke-opacity:0.8;" x="495.020632" xlink:href="#m7103d223b9" y="290.450438"/>
     <use style="fill:#44aa99;fill-opacity:0.8;stroke:#000000;stroke-opacity:0.8;" x="649.613675" xlink:href="#m7103d223b9" y="351.69003"/>
     <use style="fill:#44aa99;fill-opacity:0.8;stroke:#000000;stroke-opacity:0.8;" x="408.131743" xlink:href="#m7103d223b9" y="174.671354"/>
     <use style="fill:#44aa99;fill-opacity:0.8;stroke:#000000;stroke-opacity:0.8;" x="409.86398" xlink:href="#m7103d223b9" y="233.332631"/>
     <use style="fill:#44aa99;fill-opacity:0.8;stroke:#000000;stroke-opacity:0.8;" x="413.392655" xlink:href="#m7103d223b9" y="200.501296"/>
     <use style="fill:#44aa99;fill-opacity:0.8;stroke:#000000;stroke-opacity:0.8;" x="437.682657" xlink:href="#m7103d223b9" y="235.599056"/>
     <use style="fill:#44aa99;fill-opacity:0.8;stroke:#000000;stroke-opacity:0.8;" x="420.100273" xlink:href="#m7103d223b9" y="246.958843"/>
     <use style="fill:#44aa99;fill-opacity:0.8;stroke:#000000;stroke-opacity:0.8;" x="387.424112" xlink:href="#m7103d223b9" y="281.371789"/>
     <use style="fill:#44aa99;fill-opacity:0.8;stroke:#000000;stroke-opacity:0.8;" x="404.390921" xlink:href="#m7103d223b9" y="210.182371"/>
     <use style="fill:#44aa99;fill-opacity:0.8;stroke:#000000;stroke-opacity:0.8;" x="373.426698" xlink:href="#m7103d223b9" y="216.795"/>
     <use style="fill:#44aa99;fill-opacity:0.8;stroke:#000000;stroke-opacity:0.8;" x="362.412904" xlink:href="#m7103d223b9" y="185.942618"/>
     <use style="fill:#44aa99;fill-opacity:0.8;stroke:#000000;stroke-opacity:0.8;" x="410.090741" xlink:href="#m7103d223b9" y="247.62824"/>
     <use style="fill:#44aa99;fill-opacity:0.8;stroke:#000000;stroke-opacity:0.8;" x="468.921736" xlink:href="#m7103d223b9" y="167.933582"/>
     <use style="fill:#44aa99;fill-opacity:0.8;stroke:#000000;stroke-opacity:0.8;" x="458.2959" xlink:href="#m7103d223b9" y="206.238558"/>
     <use style="fill:#44aa99;fill-opacity:0.8;stroke:#000000;stroke-opacity:0.8;" x="496.958206" xlink:href="#m7103d223b9" y="276.752491"/>
     <use style="fill:#44aa99;fill-opacity:0.8;stroke:#000000;stroke-opacity:0.8;" x="526.241578" xlink:href="#m7103d223b9" y="213.059754"/>
     <use style="fill:#44aa99;fill-opacity:0.8;stroke:#000000;stroke-opacity:0.8;" x="559.897941" xlink:href="#m7103d223b9" y="239.458753"/>
     <use style="fill:#44aa99;fill-opacity:0.8;stroke:#000000;stroke-opacity:0.8;" x="516.848285" xlink:href="#m7103d223b9" y="207.219288"/>
     <use style="fill:#44aa99;fill-opacity:0.8;stroke:#000000;stroke-opacity:0.8;" x="365.657608" xlink:href="#m7103d223b9" y="288.289476"/>
     <use style="fill:#44aa99;fill-opacity:0.8;stroke:#000000;stroke-opacity:0.8;" x="364.728016" xlink:href="#m7103d223b9" y="236.929156"/>
     <use style="fill:#44aa99;fill-opacity:0.8;stroke:#000000;stroke-opacity:0.8;" x="366.38429" xlink:href="#m7103d223b9" y="244.39169"/>
    </g>
   </g>
   <g id="PathCollection_4">
    <defs>
     <path d="M -2.738613 5.477226 
L 0 2.738613 
L 2.738613 5.477226 
L 5.477226 2.738613 
L 2.738613 0 
L 5.477226 -2.738613 
L 2.738613 -5.477226 
L 0 -2.738613 
L -2.738613 -5.477226 
L -5.477226 -2.738613 
L -2.738613 0 
L -5.477226 2.738613 
z
" id="mfd12758cf8" style="stroke:#000000;stroke-opacity:0.8;"/>
    </defs>
    <g clip-path="url(#pa27a1d776b)">
     <use style="fill:#88ccee;fill-opacity:0.8;stroke:#000000;stroke-opacity:0.8;" x="147.754777" xlink:href="#mfd12758cf8" y="334.572775"/>
     <use style="fill:#88ccee;fill-opacity:0.8;stroke:#000000;stroke-opacity:0.8;" x="124.576273" xlink:href="#mfd12758cf8" y="359.944828"/>
     <use style="fill:#88ccee;fill-opacity:0.8;stroke:#000000;stroke-opacity:0.8;" x="133.592837" xlink:href="#mfd12758cf8" y="335.082601"/>
     <use style="fill:#88ccee;fill-opacity:0.8;stroke:#000000;stroke-opacity:0.8;" x="124.106037" xlink:href="#mfd12758cf8" y="356.122784"/>
    </g>
   </g>
   <g id="PathCollection_5">
    <defs>
     <path d="M -0 7.745967 
L 7.745967 0 
L 0 -7.745967 
L -7.745967 -0 
z
" id="m8728b8ec8f" style="stroke:#000000;stroke-opacity:0.8;"/>
    </defs>
    <g clip-path="url(#pa27a1d776b)">
     <use style="fill:#ddcc77;fill-opacity:0.8;stroke:#000000;stroke-opacity:0.8;" x="401.701138" xlink:href="#m8728b8ec8f" y="181.017069"/>
     <use style="fill:#ddcc77;fill-opacity:0.8;stroke:#000000;stroke-opacity:0.8;" x="404.171564" xlink:href="#m8728b8ec8f" y="132.078988"/>
     <use style="fill:#ddcc77;fill-opacity:0.8;stroke:#000000;stroke-opacity:0.8;" x="396.952539" xlink:href="#m8728b8ec8f" y="208.292591"/>
     <use style="fill:#ddcc77;fill-opacity:0.8;stroke:#000000;stroke-opacity:0.8;" x="443.892756" xlink:href="#m8728b8ec8f" y="226.112662"/>
     <use style="fill:#ddcc77;fill-opacity:0.8;stroke:#000000;stroke-opacity:0.8;" x="430.109066" xlink:href="#m8728b8ec8f" y="147.583348"/>
     <use style="fill:#ddcc77;fill-opacity:0.8;stroke:#000000;stroke-opacity:0.8;" x="365.401699" xlink:href="#m8728b8ec8f" y="141.74046"/>
     <use style="fill:#ddcc77;fill-opacity:0.8;stroke:#000000;stroke-opacity:0.8;" x="368.488592" xlink:href="#m8728b8ec8f" y="188.526038"/>
     <use style="fill:#ddcc77;fill-opacity:0.8;stroke:#000000;stroke-opacity:0.8;" x="382.019384" xlink:href="#m8728b8ec8f" y="188.074441"/>
     <use style="fill:#ddcc77;fill-opacity:0.8;stroke:#000000;stroke-opacity:0.8;" x="409.612951" xlink:href="#m8728b8ec8f" y="233.550749"/>
    </g>
   </g>
   <g id="PathCollection_6">
    <defs>
     <path d="M -2.738613 -4.743416 
L -5.477226 -0 
L -2.738613 4.743416 
L 2.738613 4.743416 
L 5.477226 0 
L 2.738613 -4.743416 
z
" id="mc9e575e71b" style="stroke:#000000;stroke-opacity:0.8;"/>
    </defs>
    <g clip-path="url(#pa27a1d776b)">
     <use style="fill:#cc6677;fill-opacity:0.8;stroke:#000000;stroke-opacity:0.8;" x="358.864498" xlink:href="#mc9e575e71b" y="254.113192"/>
     <use style="fill:#cc6677;fill-opacity:0.8;stroke:#000000;stroke-opacity:0.8;" x="378.437164" xlink:href="#mc9e575e71b" y="265.320135"/>
     <use style="fill:#cc6677;fill-opacity:0.8;stroke:#000000;stroke-opacity:0.8;" x="442.261839" xlink:href="#mc9e575e71b" y="241.276694"/>
     <use style="fill:#cc6677;fill-opacity:0.8;stroke:#000000;stroke-opacity:0.8;" x="429.925615" xlink:href="#mc9e575e71b" y="197.9874"/>
     <use style="fill:#cc6677;fill-opacity:0.8;stroke:#000000;stroke-opacity:0.8;" x="447.072571" xlink:href="#mc9e575e71b" y="217.336188"/>
     <use style="fill:#cc6677;fill-opacity:0.8;stroke:#000000;stroke-opacity:0.8;" x="504.029958" xlink:href="#mc9e575e71b" y="204.047328"/>
     <use style="fill:#cc6677;fill-opacity:0.8;stroke:#000000;stroke-opacity:0.8;" x="392.319911" xlink:href="#mc9e575e71b" y="195.270863"/>
     <use style="fill:#cc6677;fill-opacity:0.8;stroke:#000000;stroke-opacity:0.8;" x="440.309213" xlink:href="#mc9e575e71b" y="191.84438"/>
     <use style="fill:#cc6677;fill-opacity:0.8;stroke:#000000;stroke-opacity:0.8;" x="398.101264" xlink:href="#mc9e575e71b" y="177.672574"/>
     <use style="fill:#cc6677;fill-opacity:0.8;stroke:#000000;stroke-opacity:0.8;" x="645.676768" xlink:href="#mc9e575e71b" y="173.248234"/>
     <use style="fill:#cc6677;fill-opacity:0.8;stroke:#000000;stroke-opacity:0.8;" x="852.517276" xlink:href="#mc9e575e71b" y="209.673428"/>
     <use style="fill:#cc6677;fill-opacity:0.8;stroke:#000000;stroke-opacity:0.8;" x="660.943161" xlink:href="#mc9e575e71b" y="168.737616"/>
     <use style="fill:#cc6677;fill-opacity:0.8;stroke:#000000;stroke-opacity:0.8;" x="504.335652" xlink:href="#mc9e575e71b" y="92.091976"/>
     <use style="fill:#cc6677;fill-opacity:0.8;stroke:#000000;stroke-opacity:0.8;" x="555.872872" xlink:href="#mc9e575e71b" y="45.693239"/>
     <use style="fill:#cc6677;fill-opacity:0.8;stroke:#000000;stroke-opacity:0.8;" x="507.910643" xlink:href="#mc9e575e71b" y="78.936601"/>
    </g>
   </g>
   <g id="PathCollection_7">
    <defs>
     <path d="M -5.477226 5.477226 
L 5.477226 5.477226 
L 5.477226 -5.477226 
L -5.477226 -5.477226 
z
" id="mbfc949df3e" style="stroke:#000000;stroke-opacity:0.8;"/>
    </defs>
    <g clip-path="url(#pa27a1d776b)">
     <use style="fill:#aa4499;fill-opacity:0.8;stroke:#000000;stroke-opacity:0.8;" x="462.62023" xlink:href="#mbfc949df3e" y="136.794855"/>
     <use style="fill:#aa4499;fill-opacity:0.8;stroke:#000000;stroke-opacity:0.8;" x="356.078739" xlink:href="#mbfc949df3e" y="234.573524"/>
     <use style="fill:#aa4499;fill-opacity:0.8;stroke:#000000;stroke-opacity:0.8;" x="318.18099" xlink:href="#mbfc949df3e" y="196.41466"/>
     <use style="fill:#aa4499;fill-opacity:0.8;stroke:#000000;stroke-opacity:0.8;" x="445.639734" xlink:href="#mbfc949df3e" y="116.521881"/>
     <use style="fill:#aa4499;fill-opacity:0.8;stroke:#000000;stroke-opacity:0.8;" x="486.47133" xlink:href="#mbfc949df3e" y="135.29555"/>
     <use style="fill:#aa4499;fill-opacity:0.8;stroke:#000000;stroke-opacity:0.8;" x="532.086713" xlink:href="#mbfc949df3e" y="209.02823"/>
     <use style="fill:#aa4499;fill-opacity:0.8;stroke:#000000;stroke-opacity:0.8;" x="432.12711" xlink:href="#mbfc949df3e" y="267.914204"/>
     <use style="fill:#aa4499;fill-opacity:0.8;stroke:#000000;stroke-opacity:0.8;" x="444.551793" xlink:href="#mbfc949df3e" y="267.543808"/>
     <use style="fill:#aa4499;fill-opacity:0.8;stroke:#000000;stroke-opacity:0.8;" x="408.327697" xlink:href="#mbfc949df3e" y="259.259739"/>
     <use style="fill:#aa4499;fill-opacity:0.8;stroke:#000000;stroke-opacity:0.8;" x="380.504979" xlink:href="#mbfc949df3e" y="266.47559"/>
     <use style="fill:#aa4499;fill-opacity:0.8;stroke:#000000;stroke-opacity:0.8;" x="412.485235" xlink:href="#mbfc949df3e" y="173.619758"/>
     <use style="fill:#aa4499;fill-opacity:0.8;stroke:#000000;stroke-opacity:0.8;" x="421.478836" xlink:href="#mbfc949df3e" y="216.960492"/>
     <use style="fill:#aa4499;fill-opacity:0.8;stroke:#000000;stroke-opacity:0.8;" x="424.086912" xlink:href="#mbfc949df3e" y="234.44846"/>
    </g>
   </g>
   <g id="PathCollection_8">
    <defs>
     <path d="M 0 -5.477226 
L -5.209151 -1.692556 
L -3.219432 4.431169 
L 3.219432 4.431169 
L 5.209151 -1.692556 
z
" id="mc7ef846b28" style="stroke:#000000;stroke-opacity:0.8;"/>
    </defs>
    <g clip-path="url(#pa27a1d776b)">
     <use style="fill:#a09fc5;fill-opacity:0.8;stroke:#000000;stroke-opacity:0.8;" x="547.494136" xlink:href="#mc7ef846b28" y="47.218471"/>
     <use style="fill:#a09fc5;fill-opacity:0.8;stroke:#000000;stroke-opacity:0.8;" x="515.79037" xlink:href="#mc7ef846b28" y="73.686385"/>
     <use style="fill:#a09fc5;fill-opacity:0.8;stroke:#000000;stroke-opacity:0.8;" x="493.958916" xlink:href="#mc7ef846b28" y="129.439101"/>
     <use style="fill:#a09fc5;fill-opacity:0.8;stroke:#000000;stroke-opacity:0.8;" x="577.529084" xlink:href="#mc7ef846b28" y="205.612106"/>
     <use style="fill:#a09fc5;fill-opacity:0.8;stroke:#000000;stroke-opacity:0.8;" x="592.987149" xlink:href="#mc7ef846b28" y="248.697632"/>
     <use style="fill:#a09fc5;fill-opacity:0.8;stroke:#000000;stroke-opacity:0.8;" x="563.572725" xlink:href="#mc7ef846b28" y="188.916639"/>
     <use style="fill:#a09fc5;fill-opacity:0.8;stroke:#000000;stroke-opacity:0.8;" x="705.883561" xlink:href="#mc7ef846b28" y="265.256922"/>
     <use style="fill:#a09fc5;fill-opacity:0.8;stroke:#000000;stroke-opacity:0.8;" x="626.911102" xlink:href="#mc7ef846b28" y="230.883751"/>
     <use style="fill:#a09fc5;fill-opacity:0.8;stroke:#000000;stroke-opacity:0.8;" x="597.095189" xlink:href="#mc7ef846b28" y="199.064103"/>
     <use style="fill:#a09fc5;fill-opacity:0.8;stroke:#000000;stroke-opacity:0.8;" x="388.405822" xlink:href="#mc7ef846b28" y="154.763124"/>
     <use style="fill:#a09fc5;fill-opacity:0.8;stroke:#000000;stroke-opacity:0.8;" x="387.359112" xlink:href="#mc7ef846b28" y="181.199318"/>
     <use style="fill:#a09fc5;fill-opacity:0.8;stroke:#000000;stroke-opacity:0.8;" x="373.184961" xlink:href="#mc7ef846b28" y="176.141769"/>
     <use style="fill:#a09fc5;fill-opacity:0.8;stroke:#000000;stroke-opacity:0.8;" x="553.505614" xlink:href="#mc7ef846b28" y="264.286699"/>
     <use style="fill:#a09fc5;fill-opacity:0.8;stroke:#000000;stroke-opacity:0.8;" x="514.289853" xlink:href="#mc7ef846b28" y="235.545374"/>
     <use style="fill:#a09fc5;fill-opacity:0.8;stroke:#000000;stroke-opacity:0.8;" x="504.582145" xlink:href="#mc7ef846b28" y="254.409954"/>
    </g>
   </g>
   <g id="PathCollection_9">
    <defs>
     <path d="M 0 -5.477226 
L -1.229714 -1.692556 
L -5.209151 -1.692556 
L -1.989719 0.646499 
L -3.219432 4.431169 
L -0 2.092114 
L 3.219432 4.431169 
L 1.989719 0.646499 
L 5.209151 -1.692556 
L 1.229714 -1.692556 
z
" id="m561405358a" style="stroke:#000000;stroke-opacity:0.8;"/>
    </defs>
    <g clip-path="url(#pa27a1d776b)">
     <use style="fill:#882255;fill-opacity:0.8;stroke:#000000;stroke-opacity:0.8;" x="365.682687" xlink:href="#m561405358a" y="296.018262"/>
     <use style="fill:#882255;fill-opacity:0.8;stroke:#000000;stroke-opacity:0.8;" x="377.203397" xlink:href="#m561405358a" y="272.45103"/>
     <use style="fill:#882255;fill-opacity:0.8;stroke:#000000;stroke-opacity:0.8;" x="392.098131" xlink:href="#m561405358a" y="331.951534"/>
     <use style="fill:#882255;fill-opacity:0.8;stroke:#000000;stroke-opacity:0.8;" x="494.081547" xlink:href="#m561405358a" y="301.132281"/>
     <use style="fill:#882255;fill-opacity:0.8;stroke:#000000;stroke-opacity:0.8;" x="573.877805" xlink:href="#m561405358a" y="353.651471"/>
     <use style="fill:#882255;fill-opacity:0.8;stroke:#000000;stroke-opacity:0.8;" x="586.361608" xlink:href="#m561405358a" y="347.466498"/>
     <use style="fill:#882255;fill-opacity:0.8;stroke:#000000;stroke-opacity:0.8;" x="613.662044" xlink:href="#m561405358a" y="391.620511"/>
     <use style="fill:#882255;fill-opacity:0.8;stroke:#000000;stroke-opacity:0.8;" x="528.912283" xlink:href="#m561405358a" y="312.832402"/>
     <use style="fill:#882255;fill-opacity:0.8;stroke:#000000;stroke-opacity:0.8;" x="524.11155" xlink:href="#m561405358a" y="290.826542"/>
     <use style="fill:#882255;fill-opacity:0.8;stroke:#000000;stroke-opacity:0.8;" x="597.441694" xlink:href="#m561405358a" y="337.12092"/>
     <use style="fill:#882255;fill-opacity:0.8;stroke:#000000;stroke-opacity:0.8;" x="728.997867" xlink:href="#m561405358a" y="344.768308"/>
     <use style="fill:#882255;fill-opacity:0.8;stroke:#000000;stroke-opacity:0.8;" x="682.219508" xlink:href="#m561405358a" y="339.048424"/>
     <use style="fill:#882255;fill-opacity:0.8;stroke:#000000;stroke-opacity:0.8;" x="676.96467" xlink:href="#m561405358a" y="317.004501"/>
     <use style="fill:#882255;fill-opacity:0.8;stroke:#000000;stroke-opacity:0.8;" x="639.559617" xlink:href="#m561405358a" y="328.408038"/>
     <use style="fill:#882255;fill-opacity:0.8;stroke:#000000;stroke-opacity:0.8;" x="629.334043" xlink:href="#m561405358a" y="337.896293"/>
    </g>
   </g>
   <g id="PathCollection_10">
    <defs>
     <path d="M -1.825742 5.477226 
L 1.825742 5.477226 
L 1.825742 1.825742 
L 5.477226 1.825742 
L 5.477226 -1.825742 
L 1.825742 -1.825742 
L 1.825742 -5.477226 
L -1.825742 -5.477226 
L -1.825742 -1.825742 
L -5.477226 -1.825742 
L -5.477226 1.825742 
L -1.825742 1.825742 
z
" id="m1551e63d01" style="stroke:#000000;stroke-opacity:0.8;"/>
    </defs>
    <g clip-path="url(#pa27a1d776b)">
     <use style="fill:#111111;fill-opacity:0.8;stroke:#000000;stroke-opacity:0.8;" x="515.477001" xlink:href="#m1551e63d01" y="287.747492"/>
     <use style="fill:#111111;fill-opacity:0.8;stroke:#000000;stroke-opacity:0.8;" x="489.301435" xlink:href="#m1551e63d01" y="286.787035"/>
     <use style="fill:#111111;fill-opacity:0.8;stroke:#000000;stroke-opacity:0.8;" x="498.852872" xlink:href="#m1551e63d01" y="295.959551"/>
     <use style="fill:#111111;fill-opacity:0.8;stroke:#000000;stroke-opacity:0.8;" x="516.422163" xlink:href="#m1551e63d01" y="257.929266"/>
     <use style="fill:#111111;fill-opacity:0.8;stroke:#000000;stroke-opacity:0.8;" x="478.525692" xlink:href="#m1551e63d01" y="215.23266"/>
     <use style="fill:#111111;fill-opacity:0.8;stroke:#000000;stroke-opacity:0.8;" x="522.913885" xlink:href="#m1551e63d01" y="288.351307"/>
     <use style="fill:#111111;fill-opacity:0.8;stroke:#000000;stroke-opacity:0.8;" x="397.844541" xlink:href="#m1551e63d01" y="253.32199"/>
     <use style="fill:#111111;fill-opacity:0.8;stroke:#000000;stroke-opacity:0.8;" x="935.742401" xlink:href="#m1551e63d01" y="115.736854"/>
     <use style="fill:#111111;fill-opacity:0.8;stroke:#000000;stroke-opacity:0.8;" x="619.541308" xlink:href="#m1551e63d01" y="203.980986"/>
     <use style="fill:#111111;fill-opacity:0.8;stroke:#000000;stroke-opacity:0.8;" x="285.504989" xlink:href="#m1551e63d01" y="209.741803"/>
     <use style="fill:#111111;fill-opacity:0.8;stroke:#000000;stroke-opacity:0.8;" x="239.438895" xlink:href="#m1551e63d01" y="255.15161"/>
     <use style="fill:#111111;fill-opacity:0.8;stroke:#000000;stroke-opacity:0.8;" x="245.394199" xlink:href="#m1551e63d01" y="291.420586"/>
     <use style="fill:#111111;fill-opacity:0.8;stroke:#000000;stroke-opacity:0.8;" x="189.465719" xlink:href="#m1551e63d01" y="296.164304"/>
     <use style="fill:#111111;fill-opacity:0.8;stroke:#000000;stroke-opacity:0.8;" x="230.931305" xlink:href="#m1551e63d01" y="284.388438"/>
     <use style="fill:#111111;fill-opacity:0.8;stroke:#000000;stroke-opacity:0.8;" x="200.957607" xlink:href="#m1551e63d01" y="277.258091"/>
     <use style="fill:#111111;fill-opacity:0.8;stroke:#000000;stroke-opacity:0.8;" x="198.785176" xlink:href="#m1551e63d01" y="248.775904"/>
     <use style="fill:#111111;fill-opacity:0.8;stroke:#000000;stroke-opacity:0.8;" x="217.540108" xlink:href="#m1551e63d01" y="259.583675"/>
     <use style="fill:#111111;fill-opacity:0.8;stroke:#000000;stroke-opacity:0.8;" x="220.463374" xlink:href="#m1551e63d01" y="257.956674"/>
     <use style="fill:#111111;fill-opacity:0.8;stroke:#000000;stroke-opacity:0.8;" x="222.835371" xlink:href="#m1551e63d01" y="266.435573"/>
     <use style="fill:#111111;fill-opacity:0.8;stroke:#000000;stroke-opacity:0.8;" x="231.331217" xlink:href="#m1551e63d01" y="287.396323"/>
     <use style="fill:#111111;fill-opacity:0.8;stroke:#000000;stroke-opacity:0.8;" x="221.158989" xlink:href="#m1551e63d01" y="256.489316"/>
     <use style="fill:#111111;fill-opacity:0.8;stroke:#000000;stroke-opacity:0.8;" x="207.536466" xlink:href="#m1551e63d01" y="193.187351"/>
     <use style="fill:#111111;fill-opacity:0.8;stroke:#000000;stroke-opacity:0.8;" x="212.526142" xlink:href="#m1551e63d01" y="198.172045"/>
     <use style="fill:#111111;fill-opacity:0.8;stroke:#000000;stroke-opacity:0.8;" x="209.179377" xlink:href="#m1551e63d01" y="186.414608"/>
     <use style="fill:#111111;fill-opacity:0.8;stroke:#000000;stroke-opacity:0.8;" x="199.640725" xlink:href="#m1551e63d01" y="189.944567"/>
     <use style="fill:#111111;fill-opacity:0.8;stroke:#000000;stroke-opacity:0.8;" x="145.200361" xlink:href="#m1551e63d01" y="267.642148"/>
     <use style="fill:#111111;fill-opacity:0.8;stroke:#000000;stroke-opacity:0.8;" x="397.758152" xlink:href="#m1551e63d01" y="155.371762"/>
     <use style="fill:#111111;fill-opacity:0.8;stroke:#000000;stroke-opacity:0.8;" x="406.833788" xlink:href="#m1551e63d01" y="171.295922"/>
     <use style="fill:#111111;fill-opacity:0.8;stroke:#000000;stroke-opacity:0.8;" x="410.764656" xlink:href="#m1551e63d01" y="155.85022"/>
     <use style="fill:#111111;fill-opacity:0.8;stroke:#000000;stroke-opacity:0.8;" x="418.01612" xlink:href="#m1551e63d01" y="124.589234"/>
     <use style="fill:#111111;fill-opacity:0.8;stroke:#000000;stroke-opacity:0.8;" x="399.261852" xlink:href="#m1551e63d01" y="84.185564"/>
     <use style="fill:#111111;fill-opacity:0.8;stroke:#000000;stroke-opacity:0.8;" x="424.8847" xlink:href="#m1551e63d01" y="134.642056"/>
     <use style="fill:#111111;fill-opacity:0.8;stroke:#000000;stroke-opacity:0.8;" x="444.055442" xlink:href="#m1551e63d01" y="225.293108"/>
     <use style="fill:#111111;fill-opacity:0.8;stroke:#000000;stroke-opacity:0.8;" x="426.966212" xlink:href="#m1551e63d01" y="353.129204"/>
     <use style="fill:#111111;fill-opacity:0.8;stroke:#000000;stroke-opacity:0.8;" x="398.424819" xlink:href="#m1551e63d01" y="328.959747"/>
     <use style="fill:#111111;fill-opacity:0.8;stroke:#000000;stroke-opacity:0.8;" x="390.093764" xlink:href="#m1551e63d01" y="325.709159"/>
     <use style="fill:#111111;fill-opacity:0.8;stroke:#000000;stroke-opacity:0.8;" x="353.590635" xlink:href="#m1551e63d01" y="140.629475"/>
     <use style="fill:#111111;fill-opacity:0.8;stroke:#000000;stroke-opacity:0.8;" x="364.818112" xlink:href="#m1551e63d01" y="164.782475"/>
     <use style="fill:#111111;fill-opacity:0.8;stroke:#000000;stroke-opacity:0.8;" x="373.13879" xlink:href="#m1551e63d01" y="174.244246"/>
     <use style="fill:#111111;fill-opacity:0.8;stroke:#000000;stroke-opacity:0.8;" x="372.852403" xlink:href="#m1551e63d01" y="201.537107"/>
     <use style="fill:#111111;fill-opacity:0.8;stroke:#000000;stroke-opacity:0.8;" x="649.745568" xlink:href="#m1551e63d01" y="291.043588"/>
     <use style="fill:#111111;fill-opacity:0.8;stroke:#000000;stroke-opacity:0.8;" x="638.69931" xlink:href="#m1551e63d01" y="281.763782"/>
     <use style="fill:#111111;fill-opacity:0.8;stroke:#000000;stroke-opacity:0.8;" x="616.888566" xlink:href="#m1551e63d01" y="272.143283"/>
    </g>
   </g>
   <g id="matplotlib.axis_1">
    <g id="xtick_1">
     <g id="line2d_1">
      <defs>
       <path d="M 0 0 
L 0 3.5 
" id="me2f5a63a64" style="stroke:#000000;stroke-width:0.8;"/>
      </defs>
      <g>
       <use style="stroke:#000000;stroke-width:0.8;" x="155.433693" xlink:href="#me2f5a63a64" y="408.916875"/>
      </g>
     </g>
     <g id="text_1">
      <!-- −10 -->
      <g transform="translate(139.605177 427.314531)scale(0.15 -0.15)">
       <defs>
        <path d="M 10.59375 35.5 
L 73.1875 35.5 
L 73.1875 27.203125 
L 10.59375 27.203125 
z
" id="DejaVuSans-8722"/>
        <path d="M 12.40625 8.296875 
L 28.515625 8.296875 
L 28.515625 63.921875 
L 10.984375 60.40625 
L 10.984375 69.390625 
L 28.421875 72.90625 
L 38.28125 72.90625 
L 38.28125 8.296875 
L 54.390625 8.296875 
L 54.390625 0 
L 12.40625 0 
z
" id="DejaVuSans-49"/>
        <path d="M 31.78125 66.40625 
Q 24.171875 66.40625 20.328125 58.90625 
Q 16.5 51.421875 16.5 36.375 
Q 16.5 21.390625 20.328125 13.890625 
Q 24.171875 6.390625 31.78125 6.390625 
Q 39.453125 6.390625 43.28125 13.890625 
Q 47.125 21.390625 47.125 36.375 
Q 47.125 51.421875 43.28125 58.90625 
Q 39.453125 66.40625 31.78125 66.40625 
z
M 31.78125 74.21875 
Q 44.046875 74.21875 50.515625 64.515625 
Q 56.984375 54.828125 56.984375 36.375 
Q 56.984375 17.96875 50.515625 8.265625 
Q 44.046875 -1.421875 31.78125 -1.421875 
Q 19.53125 -1.421875 13.0625 8.265625 
Q 6.59375 17.96875 6.59375 36.375 
Q 6.59375 54.828125 13.0625 64.515625 
Q 19.53125 74.21875 31.78125 74.21875 
z
" id="DejaVuSans-48"/>
       </defs>
       <use xlink:href="#DejaVuSans-8722"/>
       <use x="83.789062" xlink:href="#DejaVuSans-49"/>
       <use x="147.412109" xlink:href="#DejaVuSans-48"/>
      </g>
     </g>
    </g>
    <g id="xtick_2">
     <g id="line2d_2">
      <g>
       <use style="stroke:#000000;stroke-width:0.8;" x="297.855699" xlink:href="#me2f5a63a64" y="408.916875"/>
      </g>
     </g>
     <g id="text_2">
      <!-- −5 -->
      <g transform="translate(286.799058 427.314531)scale(0.15 -0.15)">
       <defs>
        <path d="M 10.796875 72.90625 
L 49.515625 72.90625 
L 49.515625 64.59375 
L 19.828125 64.59375 
L 19.828125 46.734375 
Q 21.96875 47.46875 24.109375 47.828125 
Q 26.265625 48.1875 28.421875 48.1875 
Q 40.625 48.1875 47.75 41.5 
Q 54.890625 34.8125 54.890625 23.390625 
Q 54.890625 11.625 47.5625 5.09375 
Q 40.234375 -1.421875 26.90625 -1.421875 
Q 22.3125 -1.421875 17.546875 -0.640625 
Q 12.796875 0.140625 7.71875 1.703125 
L 7.71875 11.625 
Q 12.109375 9.234375 16.796875 8.0625 
Q 21.484375 6.890625 26.703125 6.890625 
Q 35.15625 6.890625 40.078125 11.328125 
Q 45.015625 15.765625 45.015625 23.390625 
Q 45.015625 31 40.078125 35.4375 
Q 35.15625 39.890625 26.703125 39.890625 
Q 22.75 39.890625 18.8125 39.015625 
Q 14.890625 38.140625 10.796875 36.28125 
z
" id="DejaVuSans-53"/>
       </defs>
       <use xlink:href="#DejaVuSans-8722"/>
       <use x="83.789062" xlink:href="#DejaVuSans-53"/>
      </g>
     </g>
    </g>
    <g id="xtick_3">
     <g id="line2d_3">
      <g>
       <use style="stroke:#000000;stroke-width:0.8;" x="440.277705" xlink:href="#me2f5a63a64" y="408.916875"/>
      </g>
     </g>
     <g id="text_3">
      <!-- 0 -->
      <g transform="translate(435.50583 427.314531)scale(0.15 -0.15)">
       <use xlink:href="#DejaVuSans-48"/>
      </g>
     </g>
    </g>
    <g id="xtick_4">
     <g id="line2d_4">
      <g>
       <use style="stroke:#000000;stroke-width:0.8;" x="582.699711" xlink:href="#me2f5a63a64" y="408.916875"/>
      </g>
     </g>
     <g id="text_4">
      <!-- 5 -->
      <g transform="translate(577.927836 427.314531)scale(0.15 -0.15)">
       <use xlink:href="#DejaVuSans-53"/>
      </g>
     </g>
    </g>
    <g id="xtick_5">
     <g id="line2d_5">
      <g>
       <use style="stroke:#000000;stroke-width:0.8;" x="725.121717" xlink:href="#me2f5a63a64" y="408.916875"/>
      </g>
     </g>
     <g id="text_5">
      <!-- 10 -->
      <g transform="translate(715.577967 427.314531)scale(0.15 -0.15)">
       <use xlink:href="#DejaVuSans-49"/>
       <use x="63.623047" xlink:href="#DejaVuSans-48"/>
      </g>
     </g>
    </g>
    <g id="xtick_6">
     <g id="line2d_6">
      <g>
       <use style="stroke:#000000;stroke-width:0.8;" x="867.543722" xlink:href="#me2f5a63a64" y="408.916875"/>
      </g>
     </g>
     <g id="text_6">
      <!-- 15 -->
      <g transform="translate(857.999972 427.314531)scale(0.15 -0.15)">
       <use xlink:href="#DejaVuSans-49"/>
       <use x="63.623047" xlink:href="#DejaVuSans-53"/>
      </g>
     </g>
    </g>
    <g id="text_7">
     <!-- PC1 (99.32%) -->
     <g transform="translate(461.438281 449.630937)scale(0.2 -0.2)">
      <defs>
       <path d="M 19.671875 64.796875 
L 19.671875 37.40625 
L 32.078125 37.40625 
Q 38.96875 37.40625 42.71875 40.96875 
Q 46.484375 44.53125 46.484375 51.125 
Q 46.484375 57.671875 42.71875 61.234375 
Q 38.96875 64.796875 32.078125 64.796875 
z
M 9.8125 72.90625 
L 32.078125 72.90625 
Q 44.34375 72.90625 50.609375 67.359375 
Q 56.890625 61.8125 56.890625 51.125 
Q 56.890625 40.328125 50.609375 34.8125 
Q 44.34375 29.296875 32.078125 29.296875 
L 19.671875 29.296875 
L 19.671875 0 
L 9.8125 0 
z
" id="DejaVuSans-80"/>
       <path d="M 64.40625 67.28125 
L 64.40625 56.890625 
Q 59.421875 61.53125 53.78125 63.8125 
Q 48.140625 66.109375 41.796875 66.109375 
Q 29.296875 66.109375 22.65625 58.46875 
Q 16.015625 50.828125 16.015625 36.375 
Q 16.015625 21.96875 22.65625 14.328125 
Q 29.296875 6.6875 41.796875 6.6875 
Q 48.140625 6.6875 53.78125 8.984375 
Q 59.421875 11.28125 64.40625 15.921875 
L 64.40625 5.609375 
Q 59.234375 2.09375 53.4375 0.328125 
Q 47.65625 -1.421875 41.21875 -1.421875 
Q 24.65625 -1.421875 15.125 8.703125 
Q 5.609375 18.84375 5.609375 36.375 
Q 5.609375 53.953125 15.125 64.078125 
Q 24.65625 74.21875 41.21875 74.21875 
Q 47.75 74.21875 53.53125 72.484375 
Q 59.328125 70.75 64.40625 67.28125 
z
" id="DejaVuSans-67"/>
       <path id="DejaVuSans-32"/>
       <path d="M 31 75.875 
Q 24.46875 64.65625 21.28125 53.65625 
Q 18.109375 42.671875 18.109375 31.390625 
Q 18.109375 20.125 21.3125 9.0625 
Q 24.515625 -2 31 -13.1875 
L 23.1875 -13.1875 
Q 15.875 -1.703125 12.234375 9.375 
Q 8.59375 20.453125 8.59375 31.390625 
Q 8.59375 42.28125 12.203125 53.3125 
Q 15.828125 64.359375 23.1875 75.875 
z
" id="DejaVuSans-40"/>
       <path d="M 10.984375 1.515625 
L 10.984375 10.5 
Q 14.703125 8.734375 18.5 7.8125 
Q 22.3125 6.890625 25.984375 6.890625 
Q 35.75 6.890625 40.890625 13.453125 
Q 46.046875 20.015625 46.78125 33.40625 
Q 43.953125 29.203125 39.59375 26.953125 
Q 35.25 24.703125 29.984375 24.703125 
Q 19.046875 24.703125 12.671875 31.3125 
Q 6.296875 37.9375 6.296875 49.421875 
Q 6.296875 60.640625 12.9375 67.421875 
Q 19.578125 74.21875 30.609375 74.21875 
Q 43.265625 74.21875 49.921875 64.515625 
Q 56.59375 54.828125 56.59375 36.375 
Q 56.59375 19.140625 48.40625 8.859375 
Q 40.234375 -1.421875 26.421875 -1.421875 
Q 22.703125 -1.421875 18.890625 -0.6875 
Q 15.09375 0.046875 10.984375 1.515625 
z
M 30.609375 32.421875 
Q 37.25 32.421875 41.125 36.953125 
Q 45.015625 41.5 45.015625 49.421875 
Q 45.015625 57.28125 41.125 61.84375 
Q 37.25 66.40625 30.609375 66.40625 
Q 23.96875 66.40625 20.09375 61.84375 
Q 16.21875 57.28125 16.21875 49.421875 
Q 16.21875 41.5 20.09375 36.953125 
Q 23.96875 32.421875 30.609375 32.421875 
z
" id="DejaVuSans-57"/>
       <path d="M 10.6875 12.40625 
L 21 12.40625 
L 21 0 
L 10.6875 0 
z
" id="DejaVuSans-46"/>
       <path d="M 40.578125 39.3125 
Q 47.65625 37.796875 51.625 33 
Q 55.609375 28.21875 55.609375 21.1875 
Q 55.609375 10.40625 48.1875 4.484375 
Q 40.765625 -1.421875 27.09375 -1.421875 
Q 22.515625 -1.421875 17.65625 -0.515625 
Q 12.796875 0.390625 7.625 2.203125 
L 7.625 11.71875 
Q 11.71875 9.328125 16.59375 8.109375 
Q 21.484375 6.890625 26.8125 6.890625 
Q 36.078125 6.890625 40.9375 10.546875 
Q 45.796875 14.203125 45.796875 21.1875 
Q 45.796875 27.640625 41.28125 31.265625 
Q 36.765625 34.90625 28.71875 34.90625 
L 20.21875 34.90625 
L 20.21875 43.015625 
L 29.109375 43.015625 
Q 36.375 43.015625 40.234375 45.921875 
Q 44.09375 48.828125 44.09375 54.296875 
Q 44.09375 59.90625 40.109375 62.90625 
Q 36.140625 65.921875 28.71875 65.921875 
Q 24.65625 65.921875 20.015625 65.03125 
Q 15.375 64.15625 9.8125 62.3125 
L 9.8125 71.09375 
Q 15.4375 72.65625 20.34375 73.4375 
Q 25.25 74.21875 29.59375 74.21875 
Q 40.828125 74.21875 47.359375 69.109375 
Q 53.90625 64.015625 53.90625 55.328125 
Q 53.90625 49.265625 50.4375 45.09375 
Q 46.96875 40.921875 40.578125 39.3125 
z
" id="DejaVuSans-51"/>
       <path d="M 19.1875 8.296875 
L 53.609375 8.296875 
L 53.609375 0 
L 7.328125 0 
L 7.328125 8.296875 
Q 12.9375 14.109375 22.625 23.890625 
Q 32.328125 33.6875 34.8125 36.53125 
Q 39.546875 41.84375 41.421875 45.53125 
Q 43.3125 49.21875 43.3125 52.78125 
Q 43.3125 58.59375 39.234375 62.25 
Q 35.15625 65.921875 28.609375 65.921875 
Q 23.96875 65.921875 18.8125 64.3125 
Q 13.671875 62.703125 7.8125 59.421875 
L 7.8125 69.390625 
Q 13.765625 71.78125 18.9375 73 
Q 24.125 74.21875 28.421875 74.21875 
Q 39.75 74.21875 46.484375 68.546875 
Q 53.21875 62.890625 53.21875 53.421875 
Q 53.21875 48.921875 51.53125 44.890625 
Q 49.859375 40.875 45.40625 35.40625 
Q 44.1875 33.984375 37.640625 27.21875 
Q 31.109375 20.453125 19.1875 8.296875 
z
" id="DejaVuSans-50"/>
       <path d="M 72.703125 32.078125 
Q 68.453125 32.078125 66.03125 28.46875 
Q 63.625 24.859375 63.625 18.40625 
Q 63.625 12.0625 66.03125 8.421875 
Q 68.453125 4.78125 72.703125 4.78125 
Q 76.859375 4.78125 79.265625 8.421875 
Q 81.6875 12.0625 81.6875 18.40625 
Q 81.6875 24.8125 79.265625 28.4375 
Q 76.859375 32.078125 72.703125 32.078125 
z
M 72.703125 38.28125 
Q 80.421875 38.28125 84.953125 32.90625 
Q 89.5 27.546875 89.5 18.40625 
Q 89.5 9.28125 84.9375 3.921875 
Q 80.375 -1.421875 72.703125 -1.421875 
Q 64.890625 -1.421875 60.34375 3.921875 
Q 55.8125 9.28125 55.8125 18.40625 
Q 55.8125 27.59375 60.375 32.9375 
Q 64.9375 38.28125 72.703125 38.28125 
z
M 22.3125 68.015625 
Q 18.109375 68.015625 15.6875 64.375 
Q 13.28125 60.75 13.28125 54.390625 
Q 13.28125 47.953125 15.671875 44.328125 
Q 18.0625 40.71875 22.3125 40.71875 
Q 26.5625 40.71875 28.96875 44.328125 
Q 31.390625 47.953125 31.390625 54.390625 
Q 31.390625 60.6875 28.953125 64.34375 
Q 26.515625 68.015625 22.3125 68.015625 
z
M 66.40625 74.21875 
L 74.21875 74.21875 
L 28.609375 -1.421875 
L 20.796875 -1.421875 
z
M 22.3125 74.21875 
Q 30.03125 74.21875 34.609375 68.875 
Q 39.203125 63.53125 39.203125 54.390625 
Q 39.203125 45.171875 34.640625 39.84375 
Q 30.078125 34.515625 22.3125 34.515625 
Q 14.546875 34.515625 10.03125 39.859375 
Q 5.515625 45.21875 5.515625 54.390625 
Q 5.515625 63.484375 10.046875 68.84375 
Q 14.59375 74.21875 22.3125 74.21875 
z
" id="DejaVuSans-37"/>
       <path d="M 8.015625 75.875 
L 15.828125 75.875 
Q 23.140625 64.359375 26.78125 53.3125 
Q 30.421875 42.28125 30.421875 31.390625 
Q 30.421875 20.453125 26.78125 9.375 
Q 23.140625 -1.703125 15.828125 -13.1875 
L 8.015625 -13.1875 
Q 14.5 -2 17.703125 9.0625 
Q 20.90625 20.125 20.90625 31.390625 
Q 20.90625 42.671875 17.703125 53.65625 
Q 14.5 64.65625 8.015625 75.875 
z
" id="DejaVuSans-41"/>
      </defs>
      <use xlink:href="#DejaVuSans-80"/>
      <use x="60.302734" xlink:href="#DejaVuSans-67"/>
      <use x="130.126953" xlink:href="#DejaVuSans-49"/>
      <use x="193.75" xlink:href="#DejaVuSans-32"/>
      <use x="225.537109" xlink:href="#DejaVuSans-40"/>
      <use x="264.550781" xlink:href="#DejaVuSans-57"/>
      <use x="328.173828" xlink:href="#DejaVuSans-57"/>
      <use x="391.796875" xlink:href="#DejaVuSans-46"/>
      <use x="423.583984" xlink:href="#DejaVuSans-51"/>
      <use x="487.207031" xlink:href="#DejaVuSans-50"/>
      <use x="550.830078" xlink:href="#DejaVuSans-37"/>
      <use x="645.849609" xlink:href="#DejaVuSans-41"/>
     </g>
    </g>
   </g>
   <g id="matplotlib.axis_2">
    <g id="ytick_1">
     <g id="line2d_7">
      <defs>
       <path d="M 0 0 
L -3.5 0 
" id="m5c2108aed9" style="stroke:#000000;stroke-width:0.8;"/>
      </defs>
      <g>
       <use style="stroke:#000000;stroke-width:0.8;" x="83.524219" xlink:href="#m5c2108aed9" y="372.730675"/>
      </g>
     </g>
     <g id="text_8">
      <!-- −0.75 -->
      <g transform="translate(30.55625 378.429503)scale(0.15 -0.15)">
       <defs>
        <path d="M 8.203125 72.90625 
L 55.078125 72.90625 
L 55.078125 68.703125 
L 28.609375 0 
L 18.3125 0 
L 43.21875 64.59375 
L 8.203125 64.59375 
z
" id="DejaVuSans-55"/>
       </defs>
       <use xlink:href="#DejaVuSans-8722"/>
       <use x="83.789062" xlink:href="#DejaVuSans-48"/>
       <use x="147.412109" xlink:href="#DejaVuSans-46"/>
       <use x="179.199219" xlink:href="#DejaVuSans-55"/>
       <use x="242.822266" xlink:href="#DejaVuSans-53"/>
      </g>
     </g>
    </g>
    <g id="ytick_2">
     <g id="line2d_8">
      <g>
       <use style="stroke:#000000;stroke-width:0.8;" x="83.524219" xlink:href="#m5c2108aed9" y="325.278956"/>
      </g>
     </g>
     <g id="text_9">
      <!-- −0.50 -->
      <g transform="translate(30.55625 330.977784)scale(0.15 -0.15)">
       <use xlink:href="#DejaVuSans-8722"/>
       <use x="83.789062" xlink:href="#DejaVuSans-48"/>
       <use x="147.412109" xlink:href="#DejaVuSans-46"/>
       <use x="179.199219" xlink:href="#DejaVuSans-53"/>
       <use x="242.822266" xlink:href="#DejaVuSans-48"/>
      </g>
     </g>
    </g>
    <g id="ytick_3">
     <g id="line2d_9">
      <g>
       <use style="stroke:#000000;stroke-width:0.8;" x="83.524219" xlink:href="#m5c2108aed9" y="277.827236"/>
      </g>
     </g>
     <g id="text_10">
      <!-- −0.25 -->
      <g transform="translate(30.55625 283.526064)scale(0.15 -0.15)">
       <use xlink:href="#DejaVuSans-8722"/>
       <use x="83.789062" xlink:href="#DejaVuSans-48"/>
       <use x="147.412109" xlink:href="#DejaVuSans-46"/>
       <use x="179.199219" xlink:href="#DejaVuSans-50"/>
       <use x="242.822266" xlink:href="#DejaVuSans-53"/>
      </g>
     </g>
    </g>
    <g id="ytick_4">
     <g id="line2d_10">
      <g>
       <use style="stroke:#000000;stroke-width:0.8;" x="83.524219" xlink:href="#m5c2108aed9" y="230.375517"/>
      </g>
     </g>
     <g id="text_11">
      <!-- 0.00 -->
      <g transform="translate(43.125781 236.074345)scale(0.15 -0.15)">
       <use xlink:href="#DejaVuSans-48"/>
       <use x="63.623047" xlink:href="#DejaVuSans-46"/>
       <use x="95.410156" xlink:href="#DejaVuSans-48"/>
       <use x="159.033203" xlink:href="#DejaVuSans-48"/>
      </g>
     </g>
    </g>
    <g id="ytick_5">
     <g id="line2d_11">
      <g>
       <use style="stroke:#000000;stroke-width:0.8;" x="83.524219" xlink:href="#m5c2108aed9" y="182.923798"/>
      </g>
     </g>
     <g id="text_12">
      <!-- 0.25 -->
      <g transform="translate(43.125781 188.622626)scale(0.15 -0.15)">
       <use xlink:href="#DejaVuSans-48"/>
       <use x="63.623047" xlink:href="#DejaVuSans-46"/>
       <use x="95.410156" xlink:href="#DejaVuSans-50"/>
       <use x="159.033203" xlink:href="#DejaVuSans-53"/>
      </g>
     </g>
    </g>
    <g id="ytick_6">
     <g id="line2d_12">
      <g>
       <use style="stroke:#000000;stroke-width:0.8;" x="83.524219" xlink:href="#m5c2108aed9" y="135.472078"/>
      </g>
     </g>
     <g id="text_13">
      <!-- 0.50 -->
      <g transform="translate(43.125781 141.170907)scale(0.15 -0.15)">
       <use xlink:href="#DejaVuSans-48"/>
       <use x="63.623047" xlink:href="#DejaVuSans-46"/>
       <use x="95.410156" xlink:href="#DejaVuSans-53"/>
       <use x="159.033203" xlink:href="#DejaVuSans-48"/>
      </g>
     </g>
    </g>
    <g id="ytick_7">
     <g id="line2d_13">
      <g>
       <use style="stroke:#000000;stroke-width:0.8;" x="83.524219" xlink:href="#m5c2108aed9" y="88.020359"/>
      </g>
     </g>
     <g id="text_14">
      <!-- 0.75 -->
      <g transform="translate(43.125781 93.719187)scale(0.15 -0.15)">
       <use xlink:href="#DejaVuSans-48"/>
       <use x="63.623047" xlink:href="#DejaVuSans-46"/>
       <use x="95.410156" xlink:href="#DejaVuSans-55"/>
       <use x="159.033203" xlink:href="#DejaVuSans-53"/>
      </g>
     </g>
    </g>
    <g id="ytick_8">
     <g id="line2d_14">
      <g>
       <use style="stroke:#000000;stroke-width:0.8;" x="83.524219" xlink:href="#m5c2108aed9" y="40.56864"/>
      </g>
     </g>
     <g id="text_15">
      <!-- 1.00 -->
      <g transform="translate(43.125781 46.267468)scale(0.15 -0.15)">
       <use xlink:href="#DejaVuSans-49"/>
       <use x="63.623047" xlink:href="#DejaVuSans-46"/>
       <use x="95.410156" xlink:href="#DejaVuSans-48"/>
       <use x="159.033203" xlink:href="#DejaVuSans-48"/>
      </g>
     </g>
    </g>
    <g id="text_16">
     <!-- PC2 (0.60%) -->
     <g transform="translate(22.396875 280.780312)rotate(-90)scale(0.2 -0.2)">
      <defs>
       <path d="M 33.015625 40.375 
Q 26.375 40.375 22.484375 35.828125 
Q 18.609375 31.296875 18.609375 23.390625 
Q 18.609375 15.53125 22.484375 10.953125 
Q 26.375 6.390625 33.015625 6.390625 
Q 39.65625 6.390625 43.53125 10.953125 
Q 47.40625 15.53125 47.40625 23.390625 
Q 47.40625 31.296875 43.53125 35.828125 
Q 39.65625 40.375 33.015625 40.375 
z
M 52.59375 71.296875 
L 52.59375 62.3125 
Q 48.875 64.0625 45.09375 64.984375 
Q 41.3125 65.921875 37.59375 65.921875 
Q 27.828125 65.921875 22.671875 59.328125 
Q 17.53125 52.734375 16.796875 39.40625 
Q 19.671875 43.65625 24.015625 45.921875 
Q 28.375 48.1875 33.59375 48.1875 
Q 44.578125 48.1875 50.953125 41.515625 
Q 57.328125 34.859375 57.328125 23.390625 
Q 57.328125 12.15625 50.6875 5.359375 
Q 44.046875 -1.421875 33.015625 -1.421875 
Q 20.359375 -1.421875 13.671875 8.265625 
Q 6.984375 17.96875 6.984375 36.375 
Q 6.984375 53.65625 15.1875 63.9375 
Q 23.390625 74.21875 37.203125 74.21875 
Q 40.921875 74.21875 44.703125 73.484375 
Q 48.484375 72.75 52.59375 71.296875 
z
" id="DejaVuSans-54"/>
      </defs>
      <use xlink:href="#DejaVuSans-80"/>
      <use x="60.302734" xlink:href="#DejaVuSans-67"/>
      <use x="130.126953" xlink:href="#DejaVuSans-50"/>
      <use x="193.75" xlink:href="#DejaVuSans-32"/>
      <use x="225.537109" xlink:href="#DejaVuSans-40"/>
      <use x="264.550781" xlink:href="#DejaVuSans-48"/>
      <use x="328.173828" xlink:href="#DejaVuSans-46"/>
      <use x="359.960938" xlink:href="#DejaVuSans-54"/>
      <use x="423.583984" xlink:href="#DejaVuSans-48"/>
      <use x="487.207031" xlink:href="#DejaVuSans-37"/>
      <use x="582.226562" xlink:href="#DejaVuSans-41"/>
     </g>
    </g>
   </g>
   <g id="patch_3">
    <path d="M 83.524219 408.916875 
L 83.524219 28.396875 
" style="fill:none;stroke:#000000;stroke-linecap:square;stroke-linejoin:miter;stroke-width:0.8;"/>
   </g>
   <g id="patch_4">
    <path d="M 976.324219 408.916875 
L 976.324219 28.396875 
" style="fill:none;stroke:#000000;stroke-linecap:square;stroke-linejoin:miter;stroke-width:0.8;"/>
   </g>
   <g id="patch_5">
    <path d="M 83.524219 408.916875 
L 976.324219 408.916875 
" style="fill:none;stroke:#000000;stroke-linecap:square;stroke-linejoin:miter;stroke-width:0.8;"/>
   </g>
   <g id="patch_6">
    <path d="M 83.524219 28.396875 
L 976.324219 28.396875 
" style="fill:none;stroke:#000000;stroke-linecap:square;stroke-linejoin:miter;stroke-width:0.8;"/>
   </g>
   <g id="text_17">
    <!-- Avg distance to 25-nearest neighbors -->
    <g transform="translate(342.416406 22.396875)scale(0.2 -0.2)">
     <defs>
      <path d="M 34.1875 63.1875 
L 20.796875 26.90625 
L 47.609375 26.90625 
z
M 28.609375 72.90625 
L 39.796875 72.90625 
L 67.578125 0 
L 57.328125 0 
L 50.6875 18.703125 
L 17.828125 18.703125 
L 11.1875 0 
L 0.78125 0 
z
" id="DejaVuSans-65"/>
      <path d="M 2.984375 54.6875 
L 12.5 54.6875 
L 29.59375 8.796875 
L 46.6875 54.6875 
L 56.203125 54.6875 
L 35.6875 0 
L 23.484375 0 
z
" id="DejaVuSans-118"/>
      <path d="M 45.40625 27.984375 
Q 45.40625 37.75 41.375 43.109375 
Q 37.359375 48.484375 30.078125 48.484375 
Q 22.859375 48.484375 18.828125 43.109375 
Q 14.796875 37.75 14.796875 27.984375 
Q 14.796875 18.265625 18.828125 12.890625 
Q 22.859375 7.515625 30.078125 7.515625 
Q 37.359375 7.515625 41.375 12.890625 
Q 45.40625 18.265625 45.40625 27.984375 
z
M 54.390625 6.78125 
Q 54.390625 -7.171875 48.1875 -13.984375 
Q 42 -20.796875 29.203125 -20.796875 
Q 24.46875 -20.796875 20.265625 -20.09375 
Q 16.0625 -19.390625 12.109375 -17.921875 
L 12.109375 -9.1875 
Q 16.0625 -11.328125 19.921875 -12.34375 
Q 23.78125 -13.375 27.78125 -13.375 
Q 36.625 -13.375 41.015625 -8.765625 
Q 45.40625 -4.15625 45.40625 5.171875 
L 45.40625 9.625 
Q 42.625 4.78125 38.28125 2.390625 
Q 33.9375 0 27.875 0 
Q 17.828125 0 11.671875 7.65625 
Q 5.515625 15.328125 5.515625 27.984375 
Q 5.515625 40.671875 11.671875 48.328125 
Q 17.828125 56 27.875 56 
Q 33.9375 56 38.28125 53.609375 
Q 42.625 51.21875 45.40625 46.390625 
L 45.40625 54.6875 
L 54.390625 54.6875 
z
" id="DejaVuSans-103"/>
      <path d="M 45.40625 46.390625 
L 45.40625 75.984375 
L 54.390625 75.984375 
L 54.390625 0 
L 45.40625 0 
L 45.40625 8.203125 
Q 42.578125 3.328125 38.25 0.953125 
Q 33.9375 -1.421875 27.875 -1.421875 
Q 17.96875 -1.421875 11.734375 6.484375 
Q 5.515625 14.40625 5.515625 27.296875 
Q 5.515625 40.1875 11.734375 48.09375 
Q 17.96875 56 27.875 56 
Q 33.9375 56 38.25 53.625 
Q 42.578125 51.265625 45.40625 46.390625 
z
M 14.796875 27.296875 
Q 14.796875 17.390625 18.875 11.75 
Q 22.953125 6.109375 30.078125 6.109375 
Q 37.203125 6.109375 41.296875 11.75 
Q 45.40625 17.390625 45.40625 27.296875 
Q 45.40625 37.203125 41.296875 42.84375 
Q 37.203125 48.484375 30.078125 48.484375 
Q 22.953125 48.484375 18.875 42.84375 
Q 14.796875 37.203125 14.796875 27.296875 
z
" id="DejaVuSans-100"/>
      <path d="M 9.421875 54.6875 
L 18.40625 54.6875 
L 18.40625 0 
L 9.421875 0 
z
M 9.421875 75.984375 
L 18.40625 75.984375 
L 18.40625 64.59375 
L 9.421875 64.59375 
z
" id="DejaVuSans-105"/>
      <path d="M 44.28125 53.078125 
L 44.28125 44.578125 
Q 40.484375 46.53125 36.375 47.5 
Q 32.28125 48.484375 27.875 48.484375 
Q 21.1875 48.484375 17.84375 46.4375 
Q 14.5 44.390625 14.5 40.28125 
Q 14.5 37.15625 16.890625 35.375 
Q 19.28125 33.59375 26.515625 31.984375 
L 29.59375 31.296875 
Q 39.15625 29.25 43.1875 25.515625 
Q 47.21875 21.78125 47.21875 15.09375 
Q 47.21875 7.46875 41.1875 3.015625 
Q 35.15625 -1.421875 24.609375 -1.421875 
Q 20.21875 -1.421875 15.453125 -0.5625 
Q 10.6875 0.296875 5.421875 2 
L 5.421875 11.28125 
Q 10.40625 8.6875 15.234375 7.390625 
Q 20.0625 6.109375 24.8125 6.109375 
Q 31.15625 6.109375 34.5625 8.28125 
Q 37.984375 10.453125 37.984375 14.40625 
Q 37.984375 18.0625 35.515625 20.015625 
Q 33.0625 21.96875 24.703125 23.78125 
L 21.578125 24.515625 
Q 13.234375 26.265625 9.515625 29.90625 
Q 5.8125 33.546875 5.8125 39.890625 
Q 5.8125 47.609375 11.28125 51.796875 
Q 16.75 56 26.8125 56 
Q 31.78125 56 36.171875 55.265625 
Q 40.578125 54.546875 44.28125 53.078125 
z
" id="DejaVuSans-115"/>
      <path d="M 18.3125 70.21875 
L 18.3125 54.6875 
L 36.8125 54.6875 
L 36.8125 47.703125 
L 18.3125 47.703125 
L 18.3125 18.015625 
Q 18.3125 11.328125 20.140625 9.421875 
Q 21.96875 7.515625 27.59375 7.515625 
L 36.8125 7.515625 
L 36.8125 0 
L 27.59375 0 
Q 17.1875 0 13.234375 3.875 
Q 9.28125 7.765625 9.28125 18.015625 
L 9.28125 47.703125 
L 2.6875 47.703125 
L 2.6875 54.6875 
L 9.28125 54.6875 
L 9.28125 70.21875 
z
" id="DejaVuSans-116"/>
      <path d="M 34.28125 27.484375 
Q 23.390625 27.484375 19.1875 25 
Q 14.984375 22.515625 14.984375 16.5 
Q 14.984375 11.71875 18.140625 8.90625 
Q 21.296875 6.109375 26.703125 6.109375 
Q 34.1875 6.109375 38.703125 11.40625 
Q 43.21875 16.703125 43.21875 25.484375 
L 43.21875 27.484375 
z
M 52.203125 31.203125 
L 52.203125 0 
L 43.21875 0 
L 43.21875 8.296875 
Q 40.140625 3.328125 35.546875 0.953125 
Q 30.953125 -1.421875 24.3125 -1.421875 
Q 15.921875 -1.421875 10.953125 3.296875 
Q 6 8.015625 6 15.921875 
Q 6 25.140625 12.171875 29.828125 
Q 18.359375 34.515625 30.609375 34.515625 
L 43.21875 34.515625 
L 43.21875 35.40625 
Q 43.21875 41.609375 39.140625 45 
Q 35.0625 48.390625 27.6875 48.390625 
Q 23 48.390625 18.546875 47.265625 
Q 14.109375 46.140625 10.015625 43.890625 
L 10.015625 52.203125 
Q 14.9375 54.109375 19.578125 55.046875 
Q 24.21875 56 28.609375 56 
Q 40.484375 56 46.34375 49.84375 
Q 52.203125 43.703125 52.203125 31.203125 
z
" id="DejaVuSans-97"/>
      <path d="M 54.890625 33.015625 
L 54.890625 0 
L 45.90625 0 
L 45.90625 32.71875 
Q 45.90625 40.484375 42.875 44.328125 
Q 39.84375 48.1875 33.796875 48.1875 
Q 26.515625 48.1875 22.3125 43.546875 
Q 18.109375 38.921875 18.109375 30.90625 
L 18.109375 0 
L 9.078125 0 
L 9.078125 54.6875 
L 18.109375 54.6875 
L 18.109375 46.1875 
Q 21.34375 51.125 25.703125 53.5625 
Q 30.078125 56 35.796875 56 
Q 45.21875 56 50.046875 50.171875 
Q 54.890625 44.34375 54.890625 33.015625 
z
" id="DejaVuSans-110"/>
      <path d="M 48.78125 52.59375 
L 48.78125 44.1875 
Q 44.96875 46.296875 41.140625 47.34375 
Q 37.3125 48.390625 33.40625 48.390625 
Q 24.65625 48.390625 19.8125 42.84375 
Q 14.984375 37.3125 14.984375 27.296875 
Q 14.984375 17.28125 19.8125 11.734375 
Q 24.65625 6.203125 33.40625 6.203125 
Q 37.3125 6.203125 41.140625 7.25 
Q 44.96875 8.296875 48.78125 10.40625 
L 48.78125 2.09375 
Q 45.015625 0.34375 40.984375 -0.53125 
Q 36.96875 -1.421875 32.421875 -1.421875 
Q 20.0625 -1.421875 12.78125 6.34375 
Q 5.515625 14.109375 5.515625 27.296875 
Q 5.515625 40.671875 12.859375 48.328125 
Q 20.21875 56 33.015625 56 
Q 37.15625 56 41.109375 55.140625 
Q 45.0625 54.296875 48.78125 52.59375 
z
" id="DejaVuSans-99"/>
      <path d="M 56.203125 29.59375 
L 56.203125 25.203125 
L 14.890625 25.203125 
Q 15.484375 15.921875 20.484375 11.0625 
Q 25.484375 6.203125 34.421875 6.203125 
Q 39.59375 6.203125 44.453125 7.46875 
Q 49.3125 8.734375 54.109375 11.28125 
L 54.109375 2.78125 
Q 49.265625 0.734375 44.1875 -0.34375 
Q 39.109375 -1.421875 33.890625 -1.421875 
Q 20.796875 -1.421875 13.15625 6.1875 
Q 5.515625 13.8125 5.515625 26.8125 
Q 5.515625 40.234375 12.765625 48.109375 
Q 20.015625 56 32.328125 56 
Q 43.359375 56 49.78125 48.890625 
Q 56.203125 41.796875 56.203125 29.59375 
z
M 47.21875 32.234375 
Q 47.125 39.59375 43.09375 43.984375 
Q 39.0625 48.390625 32.421875 48.390625 
Q 24.90625 48.390625 20.390625 44.140625 
Q 15.875 39.890625 15.1875 32.171875 
z
" id="DejaVuSans-101"/>
      <path d="M 30.609375 48.390625 
Q 23.390625 48.390625 19.1875 42.75 
Q 14.984375 37.109375 14.984375 27.296875 
Q 14.984375 17.484375 19.15625 11.84375 
Q 23.34375 6.203125 30.609375 6.203125 
Q 37.796875 6.203125 41.984375 11.859375 
Q 46.1875 17.53125 46.1875 27.296875 
Q 46.1875 37.015625 41.984375 42.703125 
Q 37.796875 48.390625 30.609375 48.390625 
z
M 30.609375 56 
Q 42.328125 56 49.015625 48.375 
Q 55.71875 40.765625 55.71875 27.296875 
Q 55.71875 13.875 49.015625 6.21875 
Q 42.328125 -1.421875 30.609375 -1.421875 
Q 18.84375 -1.421875 12.171875 6.21875 
Q 5.515625 13.875 5.515625 27.296875 
Q 5.515625 40.765625 12.171875 48.375 
Q 18.84375 56 30.609375 56 
z
" id="DejaVuSans-111"/>
      <path d="M 4.890625 31.390625 
L 31.203125 31.390625 
L 31.203125 23.390625 
L 4.890625 23.390625 
z
" id="DejaVuSans-45"/>
      <path d="M 41.109375 46.296875 
Q 39.59375 47.171875 37.8125 47.578125 
Q 36.03125 48 33.890625 48 
Q 26.265625 48 22.1875 43.046875 
Q 18.109375 38.09375 18.109375 28.8125 
L 18.109375 0 
L 9.078125 0 
L 9.078125 54.6875 
L 18.109375 54.6875 
L 18.109375 46.1875 
Q 20.953125 51.171875 25.484375 53.578125 
Q 30.03125 56 36.53125 56 
Q 37.453125 56 38.578125 55.875 
Q 39.703125 55.765625 41.0625 55.515625 
z
" id="DejaVuSans-114"/>
      <path d="M 54.890625 33.015625 
L 54.890625 0 
L 45.90625 0 
L 45.90625 32.71875 
Q 45.90625 40.484375 42.875 44.328125 
Q 39.84375 48.1875 33.796875 48.1875 
Q 26.515625 48.1875 22.3125 43.546875 
Q 18.109375 38.921875 18.109375 30.90625 
L 18.109375 0 
L 9.078125 0 
L 9.078125 75.984375 
L 18.109375 75.984375 
L 18.109375 46.1875 
Q 21.34375 51.125 25.703125 53.5625 
Q 30.078125 56 35.796875 56 
Q 45.21875 56 50.046875 50.171875 
Q 54.890625 44.34375 54.890625 33.015625 
z
" id="DejaVuSans-104"/>
      <path d="M 48.6875 27.296875 
Q 48.6875 37.203125 44.609375 42.84375 
Q 40.53125 48.484375 33.40625 48.484375 
Q 26.265625 48.484375 22.1875 42.84375 
Q 18.109375 37.203125 18.109375 27.296875 
Q 18.109375 17.390625 22.1875 11.75 
Q 26.265625 6.109375 33.40625 6.109375 
Q 40.53125 6.109375 44.609375 11.75 
Q 48.6875 17.390625 48.6875 27.296875 
z
M 18.109375 46.390625 
Q 20.953125 51.265625 25.265625 53.625 
Q 29.59375 56 35.59375 56 
Q 45.5625 56 51.78125 48.09375 
Q 58.015625 40.1875 58.015625 27.296875 
Q 58.015625 14.40625 51.78125 6.484375 
Q 45.5625 -1.421875 35.59375 -1.421875 
Q 29.59375 -1.421875 25.265625 0.953125 
Q 20.953125 3.328125 18.109375 8.203125 
L 18.109375 0 
L 9.078125 0 
L 9.078125 75.984375 
L 18.109375 75.984375 
z
" id="DejaVuSans-98"/>
     </defs>
     <use xlink:href="#DejaVuSans-65"/>
     <use x="62.533203" xlink:href="#DejaVuSans-118"/>
     <use x="121.712891" xlink:href="#DejaVuSans-103"/>
     <use x="185.189453" xlink:href="#DejaVuSans-32"/>
     <use x="216.976562" xlink:href="#DejaVuSans-100"/>
     <use x="280.453125" xlink:href="#DejaVuSans-105"/>
     <use x="308.236328" xlink:href="#DejaVuSans-115"/>
     <use x="360.335938" xlink:href="#DejaVuSans-116"/>
     <use x="399.544922" xlink:href="#DejaVuSans-97"/>
     <use x="460.824219" xlink:href="#DejaVuSans-110"/>
     <use x="524.203125" xlink:href="#DejaVuSans-99"/>
     <use x="579.183594" xlink:href="#DejaVuSans-101"/>
     <use x="640.707031" xlink:href="#DejaVuSans-32"/>
     <use x="672.494141" xlink:href="#DejaVuSans-116"/>
     <use x="711.703125" xlink:href="#DejaVuSans-111"/>
     <use x="772.884766" xlink:href="#DejaVuSans-32"/>
     <use x="804.671875" xlink:href="#DejaVuSans-50"/>
     <use x="868.294922" xlink:href="#DejaVuSans-53"/>
     <use x="931.917969" xlink:href="#DejaVuSans-45"/>
     <use x="968.001953" xlink:href="#DejaVuSans-110"/>
     <use x="1031.380859" xlink:href="#DejaVuSans-101"/>
     <use x="1092.904297" xlink:href="#DejaVuSans-97"/>
     <use x="1154.183594" xlink:href="#DejaVuSans-114"/>
     <use x="1193.046875" xlink:href="#DejaVuSans-101"/>
     <use x="1254.570312" xlink:href="#DejaVuSans-115"/>
     <use x="1306.669922" xlink:href="#DejaVuSans-116"/>
     <use x="1345.878906" xlink:href="#DejaVuSans-32"/>
     <use x="1377.666016" xlink:href="#DejaVuSans-110"/>
     <use x="1441.044922" xlink:href="#DejaVuSans-101"/>
     <use x="1502.568359" xlink:href="#DejaVuSans-105"/>
     <use x="1530.351562" xlink:href="#DejaVuSans-103"/>
     <use x="1593.828125" xlink:href="#DejaVuSans-104"/>
     <use x="1657.207031" xlink:href="#DejaVuSans-98"/>
     <use x="1720.683594" xlink:href="#DejaVuSans-111"/>
     <use x="1781.865234" xlink:href="#DejaVuSans-114"/>
     <use x="1822.978516" xlink:href="#DejaVuSans-115"/>
    </g>
   </g>
  </g>
  <g id="legend_1">
   <g id="patch_7">
    <path d="M 987.352031 385.103437 
L 1194.124219 385.103437 
Q 1197.724219 385.103437 1197.724219 381.503437 
L 1197.724219 30.916875 
Q 1197.724219 27.316875 1194.124219 27.316875 
L 987.352031 27.316875 
Q 983.752031 27.316875 983.752031 30.916875 
L 983.752031 381.503437 
Q 983.752031 385.103437 987.352031 385.103437 
z
" style="fill:#d3d3d3;opacity:0.4;stroke:#c0c0c0;stroke-linejoin:miter;"/>
   </g>
   <g id="PathCollection_11">
    <g>
     <use style="fill:#332288;fill-opacity:0.8;stroke:#000000;stroke-opacity:0.8;" x="1002.652031" xlink:href="#md6de2e076e" y="37.169062"/>
    </g>
   </g>
   <g id="text_18">
    <!-- Kumquats -->
    <g transform="translate(1020.652031 41.894062)scale(0.18 -0.18)">
     <defs>
      <path d="M 9.8125 72.90625 
L 19.671875 72.90625 
L 19.671875 42.09375 
L 52.390625 72.90625 
L 65.09375 72.90625 
L 28.90625 38.921875 
L 67.671875 0 
L 54.6875 0 
L 19.671875 35.109375 
L 19.671875 0 
L 9.8125 0 
z
" id="DejaVuSans-75"/>
      <path d="M 8.5 21.578125 
L 8.5 54.6875 
L 17.484375 54.6875 
L 17.484375 21.921875 
Q 17.484375 14.15625 20.5 10.265625 
Q 23.53125 6.390625 29.59375 6.390625 
Q 36.859375 6.390625 41.078125 11.03125 
Q 45.3125 15.671875 45.3125 23.6875 
L 45.3125 54.6875 
L 54.296875 54.6875 
L 54.296875 0 
L 45.3125 0 
L 45.3125 8.40625 
Q 42.046875 3.421875 37.71875 1 
Q 33.40625 -1.421875 27.6875 -1.421875 
Q 18.265625 -1.421875 13.375 4.4375 
Q 8.5 10.296875 8.5 21.578125 
z
M 31.109375 56 
z
" id="DejaVuSans-117"/>
      <path d="M 52 44.1875 
Q 55.375 50.25 60.0625 53.125 
Q 64.75 56 71.09375 56 
Q 79.640625 56 84.28125 50.015625 
Q 88.921875 44.046875 88.921875 33.015625 
L 88.921875 0 
L 79.890625 0 
L 79.890625 32.71875 
Q 79.890625 40.578125 77.09375 44.375 
Q 74.3125 48.1875 68.609375 48.1875 
Q 61.625 48.1875 57.5625 43.546875 
Q 53.515625 38.921875 53.515625 30.90625 
L 53.515625 0 
L 44.484375 0 
L 44.484375 32.71875 
Q 44.484375 40.625 41.703125 44.40625 
Q 38.921875 48.1875 33.109375 48.1875 
Q 26.21875 48.1875 22.15625 43.53125 
Q 18.109375 38.875 18.109375 30.90625 
L 18.109375 0 
L 9.078125 0 
L 9.078125 54.6875 
L 18.109375 54.6875 
L 18.109375 46.1875 
Q 21.1875 51.21875 25.484375 53.609375 
Q 29.78125 56 35.6875 56 
Q 41.65625 56 45.828125 52.96875 
Q 50 49.953125 52 44.1875 
z
" id="DejaVuSans-109"/>
      <path d="M 14.796875 27.296875 
Q 14.796875 17.390625 18.875 11.75 
Q 22.953125 6.109375 30.078125 6.109375 
Q 37.203125 6.109375 41.296875 11.75 
Q 45.40625 17.390625 45.40625 27.296875 
Q 45.40625 37.203125 41.296875 42.84375 
Q 37.203125 48.484375 30.078125 48.484375 
Q 22.953125 48.484375 18.875 42.84375 
Q 14.796875 37.203125 14.796875 27.296875 
z
M 45.40625 8.203125 
Q 42.578125 3.328125 38.25 0.953125 
Q 33.9375 -1.421875 27.875 -1.421875 
Q 17.96875 -1.421875 11.734375 6.484375 
Q 5.515625 14.40625 5.515625 27.296875 
Q 5.515625 40.1875 11.734375 48.09375 
Q 17.96875 56 27.875 56 
Q 33.9375 56 38.25 53.625 
Q 42.578125 51.265625 45.40625 46.390625 
L 45.40625 54.6875 
L 54.390625 54.6875 
L 54.390625 -20.796875 
L 45.40625 -20.796875 
z
" id="DejaVuSans-113"/>
     </defs>
     <use xlink:href="#DejaVuSans-75"/>
     <use x="60.576172" xlink:href="#DejaVuSans-117"/>
     <use x="123.955078" xlink:href="#DejaVuSans-109"/>
     <use x="221.367188" xlink:href="#DejaVuSans-113"/>
     <use x="284.84375" xlink:href="#DejaVuSans-117"/>
     <use x="348.222656" xlink:href="#DejaVuSans-97"/>
     <use x="409.501953" xlink:href="#DejaVuSans-116"/>
     <use x="448.710938" xlink:href="#DejaVuSans-115"/>
    </g>
   </g>
   <g id="PathCollection_12">
    <g>
     <use style="fill:#117733;fill-opacity:0.8;stroke:#000000;stroke-opacity:0.8;" x="1002.652031" xlink:href="#me7fbae2e50" y="75.539437"/>
    </g>
   </g>
   <g id="text_19">
    <!-- Lemons and Lemon -->
    <g transform="translate(1020.652031 68.314687)scale(0.18 -0.18)">
     <defs>
      <path d="M 9.8125 72.90625 
L 19.671875 72.90625 
L 19.671875 8.296875 
L 55.171875 8.296875 
L 55.171875 0 
L 9.8125 0 
z
" id="DejaVuSans-76"/>
     </defs>
     <use xlink:href="#DejaVuSans-76"/>
     <use x="53.962891" xlink:href="#DejaVuSans-101"/>
     <use x="115.486328" xlink:href="#DejaVuSans-109"/>
     <use x="212.898438" xlink:href="#DejaVuSans-111"/>
     <use x="274.080078" xlink:href="#DejaVuSans-110"/>
     <use x="337.458984" xlink:href="#DejaVuSans-115"/>
     <use x="389.558594" xlink:href="#DejaVuSans-32"/>
     <use x="421.345703" xlink:href="#DejaVuSans-97"/>
     <use x="482.625" xlink:href="#DejaVuSans-110"/>
     <use x="546.003906" xlink:href="#DejaVuSans-100"/>
     <use x="609.480469" xlink:href="#DejaVuSans-32"/>
     <use x="641.267578" xlink:href="#DejaVuSans-76"/>
     <use x="695.230469" xlink:href="#DejaVuSans-101"/>
     <use x="756.753906" xlink:href="#DejaVuSans-109"/>
     <use x="854.166016" xlink:href="#DejaVuSans-111"/>
     <use x="915.347656" xlink:href="#DejaVuSans-110"/>
    </g>
    <!-- Hybrids -->
    <g transform="translate(1020.652031 88.47075)scale(0.18 -0.18)">
     <defs>
      <path d="M 9.8125 72.90625 
L 19.671875 72.90625 
L 19.671875 43.015625 
L 55.515625 43.015625 
L 55.515625 72.90625 
L 65.375 72.90625 
L 65.375 0 
L 55.515625 0 
L 55.515625 34.71875 
L 19.671875 34.71875 
L 19.671875 0 
L 9.8125 0 
z
" id="DejaVuSans-72"/>
      <path d="M 32.171875 -5.078125 
Q 28.375 -14.84375 24.75 -17.8125 
Q 21.140625 -20.796875 15.09375 -20.796875 
L 7.90625 -20.796875 
L 7.90625 -13.28125 
L 13.1875 -13.28125 
Q 16.890625 -13.28125 18.9375 -11.515625 
Q 21 -9.765625 23.484375 -3.21875 
L 25.09375 0.875 
L 2.984375 54.6875 
L 12.5 54.6875 
L 29.59375 11.921875 
L 46.6875 54.6875 
L 56.203125 54.6875 
z
" id="DejaVuSans-121"/>
     </defs>
     <use xlink:href="#DejaVuSans-72"/>
     <use x="75.195312" xlink:href="#DejaVuSans-121"/>
     <use x="134.375" xlink:href="#DejaVuSans-98"/>
     <use x="197.851562" xlink:href="#DejaVuSans-114"/>
     <use x="238.964844" xlink:href="#DejaVuSans-105"/>
     <use x="266.748047" xlink:href="#DejaVuSans-100"/>
     <use x="330.224609" xlink:href="#DejaVuSans-115"/>
    </g>
   </g>
   <g id="PathCollection_13">
    <g>
     <use style="fill:#44aa99;fill-opacity:0.8;stroke:#000000;stroke-opacity:0.8;" x="1002.652031" xlink:href="#m7103d223b9" y="122.116125"/>
    </g>
   </g>
   <g id="text_20">
    <!-- Mandarins and -->
    <g transform="translate(1020.652031 114.891375)scale(0.18 -0.18)">
     <defs>
      <path d="M 9.8125 72.90625 
L 24.515625 72.90625 
L 43.109375 23.296875 
L 61.8125 72.90625 
L 76.515625 72.90625 
L 76.515625 0 
L 66.890625 0 
L 66.890625 64.015625 
L 48.09375 14.015625 
L 38.1875 14.015625 
L 19.390625 64.015625 
L 19.390625 0 
L 9.8125 0 
z
" id="DejaVuSans-77"/>
     </defs>
     <use xlink:href="#DejaVuSans-77"/>
     <use x="86.279297" xlink:href="#DejaVuSans-97"/>
     <use x="147.558594" xlink:href="#DejaVuSans-110"/>
     <use x="210.9375" xlink:href="#DejaVuSans-100"/>
     <use x="274.414062" xlink:href="#DejaVuSans-97"/>
     <use x="335.693359" xlink:href="#DejaVuSans-114"/>
     <use x="376.806641" xlink:href="#DejaVuSans-105"/>
     <use x="404.589844" xlink:href="#DejaVuSans-110"/>
     <use x="467.96875" xlink:href="#DejaVuSans-115"/>
     <use x="520.068359" xlink:href="#DejaVuSans-32"/>
     <use x="551.855469" xlink:href="#DejaVuSans-97"/>
     <use x="613.134766" xlink:href="#DejaVuSans-110"/>
     <use x="676.513672" xlink:href="#DejaVuSans-100"/>
    </g>
    <!-- Mandarin Hybrids -->
    <g transform="translate(1020.652031 135.047437)scale(0.18 -0.18)">
     <use xlink:href="#DejaVuSans-77"/>
     <use x="86.279297" xlink:href="#DejaVuSans-97"/>
     <use x="147.558594" xlink:href="#DejaVuSans-110"/>
     <use x="210.9375" xlink:href="#DejaVuSans-100"/>
     <use x="274.414062" xlink:href="#DejaVuSans-97"/>
     <use x="335.693359" xlink:href="#DejaVuSans-114"/>
     <use x="376.806641" xlink:href="#DejaVuSans-105"/>
     <use x="404.589844" xlink:href="#DejaVuSans-110"/>
     <use x="467.96875" xlink:href="#DejaVuSans-32"/>
     <use x="499.755859" xlink:href="#DejaVuSans-72"/>
     <use x="574.951172" xlink:href="#DejaVuSans-121"/>
     <use x="634.130859" xlink:href="#DejaVuSans-98"/>
     <use x="697.607422" xlink:href="#DejaVuSans-114"/>
     <use x="738.720703" xlink:href="#DejaVuSans-105"/>
     <use x="766.503906" xlink:href="#DejaVuSans-100"/>
     <use x="829.980469" xlink:href="#DejaVuSans-115"/>
    </g>
   </g>
   <g id="PathCollection_14">
    <g>
     <use style="fill:#88ccee;fill-opacity:0.8;stroke:#000000;stroke-opacity:0.8;" x="1002.652031" xlink:href="#mfd12758cf8" y="156.743062"/>
    </g>
   </g>
   <g id="text_21">
    <!-- Microcitrus -->
    <g transform="translate(1020.652031 161.468062)scale(0.18 -0.18)">
     <use xlink:href="#DejaVuSans-77"/>
     <use x="86.279297" xlink:href="#DejaVuSans-105"/>
     <use x="114.0625" xlink:href="#DejaVuSans-99"/>
     <use x="169.042969" xlink:href="#DejaVuSans-114"/>
     <use x="207.90625" xlink:href="#DejaVuSans-111"/>
     <use x="269.087891" xlink:href="#DejaVuSans-99"/>
     <use x="324.068359" xlink:href="#DejaVuSans-105"/>
     <use x="351.851562" xlink:href="#DejaVuSans-116"/>
     <use x="391.060547" xlink:href="#DejaVuSans-114"/>
     <use x="432.173828" xlink:href="#DejaVuSans-117"/>
     <use x="495.552734" xlink:href="#DejaVuSans-115"/>
    </g>
   </g>
   <g id="PathCollection_15">
    <g>
     <use style="fill:#ddcc77;fill-opacity:0.8;stroke:#000000;stroke-opacity:0.8;" x="1002.652031" xlink:href="#m8728b8ec8f" y="183.163687"/>
    </g>
   </g>
   <g id="text_22">
    <!-- Papedas -->
    <g transform="translate(1020.652031 187.888687)scale(0.18 -0.18)">
     <defs>
      <path d="M 18.109375 8.203125 
L 18.109375 -20.796875 
L 9.078125 -20.796875 
L 9.078125 54.6875 
L 18.109375 54.6875 
L 18.109375 46.390625 
Q 20.953125 51.265625 25.265625 53.625 
Q 29.59375 56 35.59375 56 
Q 45.5625 56 51.78125 48.09375 
Q 58.015625 40.1875 58.015625 27.296875 
Q 58.015625 14.40625 51.78125 6.484375 
Q 45.5625 -1.421875 35.59375 -1.421875 
Q 29.59375 -1.421875 25.265625 0.953125 
Q 20.953125 3.328125 18.109375 8.203125 
z
M 48.6875 27.296875 
Q 48.6875 37.203125 44.609375 42.84375 
Q 40.53125 48.484375 33.40625 48.484375 
Q 26.265625 48.484375 22.1875 42.84375 
Q 18.109375 37.203125 18.109375 27.296875 
Q 18.109375 17.390625 22.1875 11.75 
Q 26.265625 6.109375 33.40625 6.109375 
Q 40.53125 6.109375 44.609375 11.75 
Q 48.6875 17.390625 48.6875 27.296875 
z
" id="DejaVuSans-112"/>
     </defs>
     <use xlink:href="#DejaVuSans-80"/>
     <use x="55.802734" xlink:href="#DejaVuSans-97"/>
     <use x="117.082031" xlink:href="#DejaVuSans-112"/>
     <use x="180.558594" xlink:href="#DejaVuSans-101"/>
     <use x="242.082031" xlink:href="#DejaVuSans-100"/>
     <use x="305.558594" xlink:href="#DejaVuSans-97"/>
     <use x="366.837891" xlink:href="#DejaVuSans-115"/>
    </g>
   </g>
   <g id="PathCollection_16">
    <g>
     <use style="fill:#cc6677;fill-opacity:0.8;stroke:#000000;stroke-opacity:0.8;" x="1002.652031" xlink:href="#mc9e575e71b" y="221.534062"/>
    </g>
   </g>
   <g id="text_23">
    <!-- Pummelos and -->
    <g transform="translate(1020.652031 214.309312)scale(0.18 -0.18)">
     <defs>
      <path d="M 9.421875 75.984375 
L 18.40625 75.984375 
L 18.40625 0 
L 9.421875 0 
z
" id="DejaVuSans-108"/>
     </defs>
     <use xlink:href="#DejaVuSans-80"/>
     <use x="58.552734" xlink:href="#DejaVuSans-117"/>
     <use x="121.931641" xlink:href="#DejaVuSans-109"/>
     <use x="219.34375" xlink:href="#DejaVuSans-109"/>
     <use x="316.755859" xlink:href="#DejaVuSans-101"/>
     <use x="378.279297" xlink:href="#DejaVuSans-108"/>
     <use x="406.0625" xlink:href="#DejaVuSans-111"/>
     <use x="467.244141" xlink:href="#DejaVuSans-115"/>
     <use x="519.34375" xlink:href="#DejaVuSans-32"/>
     <use x="551.130859" xlink:href="#DejaVuSans-97"/>
     <use x="612.410156" xlink:href="#DejaVuSans-110"/>
     <use x="675.789062" xlink:href="#DejaVuSans-100"/>
    </g>
    <!-- Pummelo Hybrids -->
    <g transform="translate(1020.652031 234.465375)scale(0.18 -0.18)">
     <use xlink:href="#DejaVuSans-80"/>
     <use x="58.552734" xlink:href="#DejaVuSans-117"/>
     <use x="121.931641" xlink:href="#DejaVuSans-109"/>
     <use x="219.34375" xlink:href="#DejaVuSans-109"/>
     <use x="316.755859" xlink:href="#DejaVuSans-101"/>
     <use x="378.279297" xlink:href="#DejaVuSans-108"/>
     <use x="406.0625" xlink:href="#DejaVuSans-111"/>
     <use x="467.244141" xlink:href="#DejaVuSans-32"/>
     <use x="499.03125" xlink:href="#DejaVuSans-72"/>
     <use x="574.226562" xlink:href="#DejaVuSans-121"/>
     <use x="633.40625" xlink:href="#DejaVuSans-98"/>
     <use x="696.882812" xlink:href="#DejaVuSans-114"/>
     <use x="737.996094" xlink:href="#DejaVuSans-105"/>
     <use x="765.779297" xlink:href="#DejaVuSans-100"/>
     <use x="829.255859" xlink:href="#DejaVuSans-115"/>
    </g>
   </g>
   <g id="PathCollection_17">
    <g>
     <use style="fill:#aa4499;fill-opacity:0.8;stroke:#000000;stroke-opacity:0.8;" x="1002.652031" xlink:href="#mbfc949df3e" y="268.11075"/>
    </g>
   </g>
   <g id="text_24">
    <!-- Sour Oranges and -->
    <g transform="translate(1020.652031 260.886)scale(0.18 -0.18)">
     <defs>
      <path d="M 53.515625 70.515625 
L 53.515625 60.890625 
Q 47.90625 63.578125 42.921875 64.890625 
Q 37.9375 66.21875 33.296875 66.21875 
Q 25.25 66.21875 20.875 63.09375 
Q 16.5 59.96875 16.5 54.203125 
Q 16.5 49.359375 19.40625 46.890625 
Q 22.3125 44.4375 30.421875 42.921875 
L 36.375 41.703125 
Q 47.40625 39.59375 52.65625 34.296875 
Q 57.90625 29 57.90625 20.125 
Q 57.90625 9.515625 50.796875 4.046875 
Q 43.703125 -1.421875 29.984375 -1.421875 
Q 24.8125 -1.421875 18.96875 -0.25 
Q 13.140625 0.921875 6.890625 3.21875 
L 6.890625 13.375 
Q 12.890625 10.015625 18.65625 8.296875 
Q 24.421875 6.59375 29.984375 6.59375 
Q 38.421875 6.59375 43.015625 9.90625 
Q 47.609375 13.234375 47.609375 19.390625 
Q 47.609375 24.75 44.3125 27.78125 
Q 41.015625 30.8125 33.5 32.328125 
L 27.484375 33.5 
Q 16.453125 35.6875 11.515625 40.375 
Q 6.59375 45.0625 6.59375 53.421875 
Q 6.59375 63.09375 13.40625 68.65625 
Q 20.21875 74.21875 32.171875 74.21875 
Q 37.3125 74.21875 42.625 73.28125 
Q 47.953125 72.359375 53.515625 70.515625 
z
" id="DejaVuSans-83"/>
      <path d="M 39.40625 66.21875 
Q 28.65625 66.21875 22.328125 58.203125 
Q 16.015625 50.203125 16.015625 36.375 
Q 16.015625 22.609375 22.328125 14.59375 
Q 28.65625 6.59375 39.40625 6.59375 
Q 50.140625 6.59375 56.421875 14.59375 
Q 62.703125 22.609375 62.703125 36.375 
Q 62.703125 50.203125 56.421875 58.203125 
Q 50.140625 66.21875 39.40625 66.21875 
z
M 39.40625 74.21875 
Q 54.734375 74.21875 63.90625 63.9375 
Q 73.09375 53.65625 73.09375 36.375 
Q 73.09375 19.140625 63.90625 8.859375 
Q 54.734375 -1.421875 39.40625 -1.421875 
Q 24.03125 -1.421875 14.8125 8.828125 
Q 5.609375 19.09375 5.609375 36.375 
Q 5.609375 53.65625 14.8125 63.9375 
Q 24.03125 74.21875 39.40625 74.21875 
z
" id="DejaVuSans-79"/>
     </defs>
     <use xlink:href="#DejaVuSans-83"/>
     <use x="63.476562" xlink:href="#DejaVuSans-111"/>
     <use x="124.658203" xlink:href="#DejaVuSans-117"/>
     <use x="188.037109" xlink:href="#DejaVuSans-114"/>
     <use x="229.150391" xlink:href="#DejaVuSans-32"/>
     <use x="260.9375" xlink:href="#DejaVuSans-79"/>
     <use x="339.648438" xlink:href="#DejaVuSans-114"/>
     <use x="380.761719" xlink:href="#DejaVuSans-97"/>
     <use x="442.041016" xlink:href="#DejaVuSans-110"/>
     <use x="505.419922" xlink:href="#DejaVuSans-103"/>
     <use x="568.896484" xlink:href="#DejaVuSans-101"/>
     <use x="630.419922" xlink:href="#DejaVuSans-115"/>
     <use x="682.519531" xlink:href="#DejaVuSans-32"/>
     <use x="714.306641" xlink:href="#DejaVuSans-97"/>
     <use x="775.585938" xlink:href="#DejaVuSans-110"/>
     <use x="838.964844" xlink:href="#DejaVuSans-100"/>
    </g>
    <!-- their hybrids -->
    <g transform="translate(1020.652031 281.042062)scale(0.18 -0.18)">
     <use xlink:href="#DejaVuSans-116"/>
     <use x="39.208984" xlink:href="#DejaVuSans-104"/>
     <use x="102.587891" xlink:href="#DejaVuSans-101"/>
     <use x="164.111328" xlink:href="#DejaVuSans-105"/>
     <use x="191.894531" xlink:href="#DejaVuSans-114"/>
     <use x="233.007812" xlink:href="#DejaVuSans-32"/>
     <use x="264.794922" xlink:href="#DejaVuSans-104"/>
     <use x="328.173828" xlink:href="#DejaVuSans-121"/>
     <use x="387.353516" xlink:href="#DejaVuSans-98"/>
     <use x="450.830078" xlink:href="#DejaVuSans-114"/>
     <use x="491.943359" xlink:href="#DejaVuSans-105"/>
     <use x="519.726562" xlink:href="#DejaVuSans-100"/>
     <use x="583.203125" xlink:href="#DejaVuSans-115"/>
    </g>
   </g>
   <g id="PathCollection_18">
    <g>
     <use style="fill:#a09fc5;fill-opacity:0.8;stroke:#000000;stroke-opacity:0.8;" x="1002.652031" xlink:href="#mc7ef846b28" y="302.737687"/>
    </g>
   </g>
   <g id="text_25">
    <!-- Sweet Oranges -->
    <g transform="translate(1020.652031 307.462687)scale(0.18 -0.18)">
     <defs>
      <path d="M 4.203125 54.6875 
L 13.1875 54.6875 
L 24.421875 12.015625 
L 35.59375 54.6875 
L 46.1875 54.6875 
L 57.421875 12.015625 
L 68.609375 54.6875 
L 77.59375 54.6875 
L 63.28125 0 
L 52.6875 0 
L 40.921875 44.828125 
L 29.109375 0 
L 18.5 0 
z
" id="DejaVuSans-119"/>
     </defs>
     <use xlink:href="#DejaVuSans-83"/>
     <use x="63.476562" xlink:href="#DejaVuSans-119"/>
     <use x="145.263672" xlink:href="#DejaVuSans-101"/>
     <use x="206.787109" xlink:href="#DejaVuSans-101"/>
     <use x="268.310547" xlink:href="#DejaVuSans-116"/>
     <use x="307.519531" xlink:href="#DejaVuSans-32"/>
     <use x="339.306641" xlink:href="#DejaVuSans-79"/>
     <use x="418.017578" xlink:href="#DejaVuSans-114"/>
     <use x="459.130859" xlink:href="#DejaVuSans-97"/>
     <use x="520.410156" xlink:href="#DejaVuSans-110"/>
     <use x="583.789062" xlink:href="#DejaVuSans-103"/>
     <use x="647.265625" xlink:href="#DejaVuSans-101"/>
     <use x="708.789062" xlink:href="#DejaVuSans-115"/>
    </g>
   </g>
   <g id="PathCollection_19">
    <g>
     <use style="fill:#882255;fill-opacity:0.8;stroke:#000000;stroke-opacity:0.8;" x="1002.652031" xlink:href="#m561405358a" y="341.108062"/>
    </g>
   </g>
   <g id="text_26">
    <!-- Trifoliates and -->
    <g transform="translate(1020.652031 333.883312)scale(0.18 -0.18)">
     <defs>
      <path d="M -0.296875 72.90625 
L 61.375 72.90625 
L 61.375 64.59375 
L 35.5 64.59375 
L 35.5 0 
L 25.59375 0 
L 25.59375 64.59375 
L -0.296875 64.59375 
z
" id="DejaVuSans-84"/>
      <path d="M 37.109375 75.984375 
L 37.109375 68.5 
L 28.515625 68.5 
Q 23.6875 68.5 21.796875 66.546875 
Q 19.921875 64.59375 19.921875 59.515625 
L 19.921875 54.6875 
L 34.71875 54.6875 
L 34.71875 47.703125 
L 19.921875 47.703125 
L 19.921875 0 
L 10.890625 0 
L 10.890625 47.703125 
L 2.296875 47.703125 
L 2.296875 54.6875 
L 10.890625 54.6875 
L 10.890625 58.5 
Q 10.890625 67.625 15.140625 71.796875 
Q 19.390625 75.984375 28.609375 75.984375 
z
" id="DejaVuSans-102"/>
     </defs>
     <use xlink:href="#DejaVuSans-84"/>
     <use x="46.333984" xlink:href="#DejaVuSans-114"/>
     <use x="87.447266" xlink:href="#DejaVuSans-105"/>
     <use x="115.230469" xlink:href="#DejaVuSans-102"/>
     <use x="150.435547" xlink:href="#DejaVuSans-111"/>
     <use x="211.617188" xlink:href="#DejaVuSans-108"/>
     <use x="239.400391" xlink:href="#DejaVuSans-105"/>
     <use x="267.183594" xlink:href="#DejaVuSans-97"/>
     <use x="328.462891" xlink:href="#DejaVuSans-116"/>
     <use x="367.671875" xlink:href="#DejaVuSans-101"/>
     <use x="429.195312" xlink:href="#DejaVuSans-115"/>
     <use x="481.294922" xlink:href="#DejaVuSans-32"/>
     <use x="513.082031" xlink:href="#DejaVuSans-97"/>
     <use x="574.361328" xlink:href="#DejaVuSans-110"/>
     <use x="637.740234" xlink:href="#DejaVuSans-100"/>
    </g>
    <!-- Trifoliate Hybrids -->
    <g transform="translate(1020.652031 354.039375)scale(0.18 -0.18)">
     <use xlink:href="#DejaVuSans-84"/>
     <use x="46.333984" xlink:href="#DejaVuSans-114"/>
     <use x="87.447266" xlink:href="#DejaVuSans-105"/>
     <use x="115.230469" xlink:href="#DejaVuSans-102"/>
     <use x="150.435547" xlink:href="#DejaVuSans-111"/>
     <use x="211.617188" xlink:href="#DejaVuSans-108"/>
     <use x="239.400391" xlink:href="#DejaVuSans-105"/>
     <use x="267.183594" xlink:href="#DejaVuSans-97"/>
     <use x="328.462891" xlink:href="#DejaVuSans-116"/>
     <use x="367.671875" xlink:href="#DejaVuSans-101"/>
     <use x="429.195312" xlink:href="#DejaVuSans-32"/>
     <use x="460.982422" xlink:href="#DejaVuSans-72"/>
     <use x="536.177734" xlink:href="#DejaVuSans-121"/>
     <use x="595.357422" xlink:href="#DejaVuSans-98"/>
     <use x="658.833984" xlink:href="#DejaVuSans-114"/>
     <use x="699.947266" xlink:href="#DejaVuSans-105"/>
     <use x="727.730469" xlink:href="#DejaVuSans-100"/>
     <use x="791.207031" xlink:href="#DejaVuSans-115"/>
    </g>
   </g>
   <g id="PathCollection_20">
    <g>
     <use style="fill:#111111;fill-opacity:0.8;stroke:#000000;stroke-opacity:0.8;" x="1002.652031" xlink:href="#m1551e63d01" y="375.735"/>
    </g>
   </g>
   <g id="text_27">
    <!-- Other -->
    <g transform="translate(1020.652031 380.46)scale(0.18 -0.18)">
     <use xlink:href="#DejaVuSans-79"/>
     <use x="78.710938" xlink:href="#DejaVuSans-116"/>
     <use x="117.919922" xlink:href="#DejaVuSans-104"/>
     <use x="181.298828" xlink:href="#DejaVuSans-101"/>
     <use x="242.822266" xlink:href="#DejaVuSans-114"/>
    </g>
   </g>
  </g>
 </g>
 <defs>
  <clipPath id="pa27a1d776b">
   <rect height="380.52" width="892.8" x="83.524219" y="28.396875"/>
  </clipPath>
 </defs>
</svg>
